<svg width="455" height="343" viewBox="0 0 455 343" fill="none" xmlns="http://www.w3.org/2000/svg">
<g clip-path="url(#clip0_15008_57107)" filter="url(#filter0_d_15008_57107)">
<path d="M36.8812 367.506C-16.4684 318.345 11.1416 286.629 11.1416 286.629C11.1416 286.629 34.9736 248.034 118.611 298.492C202.249 348.95 283.198 330.197 301.504 322.632C319.81 315.067 383.776 267.52 419.824 264.848C439.884 263.361 463.891 278.437 442.833 319.195C399.26 403.477 280.993 413.093 280.993 413.093C280.993 413.093 223.653 423.861 164.75 413.427C164.75 413.427 90.2309 416.673 36.8812 367.506Z" fill="#FFECE3"/>
<path d="M256.778 377.765C257.206 377.766 257.619 377.609 257.937 377.324C258.286 377.015 258.498 376.581 258.528 376.116C258.558 375.651 258.403 375.194 258.096 374.843L256.561 373.106L343.27 306.216C343.593 305.919 343.793 305.513 343.831 305.076C343.87 304.639 343.743 304.204 343.477 303.855C343.211 303.506 342.824 303.27 342.393 303.192C341.961 303.114 341.516 303.199 341.144 303.433L252.937 371.475C252.745 371.62 252.585 371.804 252.468 372.014C252.351 372.224 252.279 372.457 252.256 372.696C252.233 372.936 252.26 373.177 252.335 373.406C252.41 373.635 252.532 373.845 252.692 374.025L255.455 377.186C255.622 377.371 255.826 377.518 256.054 377.618C256.282 377.718 256.529 377.768 256.778 377.765Z" fill="black"/>
<path d="M176.515 374.62C176.921 374.619 177.313 374.479 177.627 374.223C177.941 373.966 178.156 373.609 178.237 373.212L179.571 366.656C179.634 366.34 179.61 366.012 179.501 365.709C179.391 365.405 179.2 365.138 178.949 364.935C178.736 364.765 157.232 347.526 120.822 320.757C84.4128 293.987 76.4581 288.521 76.3837 288.467C75.9988 288.217 75.5312 288.127 75.0809 288.217C74.6306 288.307 74.2333 288.569 73.9738 288.948C73.7143 289.327 73.6133 289.792 73.6922 290.244C73.7712 290.696 74.0239 291.1 74.3964 291.368C74.4708 291.416 82.436 296.888 118.745 323.583C151.084 347.367 171.627 363.596 175.915 367.007L174.794 372.516C174.748 372.742 174.747 372.974 174.791 373.2C174.835 373.426 174.924 373.641 175.051 373.833C175.178 374.025 175.342 374.19 175.533 374.319C175.724 374.447 175.939 374.537 176.165 374.583C176.28 374.608 176.397 374.62 176.515 374.62Z" fill="white"/>
<path d="M365.301 246.042C362.554 233.765 345.05 188.518 331.825 155.199C321.309 128.562 295.84 109.394 265.515 105.538C242.104 102.634 218.461 102.1 194.943 103.944C155.712 107.03 122.013 131.037 109.037 165.462C97.3464 196.46 84.5934 234.524 84.3224 253.798C84.0143 274.336 96.4271 293.96 109.972 309.202C127.061 328.428 151.419 340.413 177.759 342.851C215.369 346.331 274.049 349.821 300.707 341.119C341.586 327.78 371.932 275.744 365.301 246.042Z" fill="#FFC849"/>
<path d="M134.68 186.016H312.371C320.435 186.016 326.973 192.552 326.973 200.615V318.074C326.973 326.136 320.435 332.673 312.371 332.673H134.68C126.616 332.673 120.078 326.136 120.078 318.074V200.615C120.078 192.552 126.616 186.016 134.68 186.016Z" fill="#DCEAEF"/>
<path d="M134.675 334.426H312.371C316.707 334.42 320.864 332.695 323.93 329.63C326.996 326.565 328.721 322.409 328.727 318.074V200.61C328.721 196.275 326.996 192.119 323.93 189.053C320.864 185.988 316.707 184.263 312.371 184.258H134.675C130.339 184.263 126.182 185.988 123.116 189.053C120.05 192.119 118.325 196.275 118.32 200.61V318.074C118.325 322.409 120.05 326.565 123.116 329.63C126.182 332.695 130.339 334.42 134.675 334.426ZM312.371 187.769C315.776 187.772 319.041 189.126 321.449 191.533C323.857 193.941 325.211 197.205 325.214 200.61V318.074C325.211 321.478 323.857 324.743 321.449 327.15C319.041 329.557 315.776 330.911 312.371 330.914H134.675C131.271 330.91 128.007 329.555 125.6 327.148C123.193 324.741 121.84 321.477 121.837 318.074V200.61C121.84 197.206 123.193 193.942 125.6 191.535C128.007 189.128 131.271 187.774 134.675 187.769H312.371Z" fill="#000032"/>
<path d="M324.146 333.379H119.876C118.651 333.35 117.432 333.566 116.291 334.014C115.15 334.463 114.111 335.135 113.234 335.991C112.356 336.847 111.659 337.87 111.184 338.999C110.708 340.128 110.462 341.342 110.462 342.567C110.462 343.793 110.708 345.006 111.184 346.135C111.659 347.265 112.356 348.287 113.234 349.143C114.111 350 115.15 350.672 116.291 351.12C117.432 351.569 118.651 351.784 119.876 351.755H324.146C325.371 351.784 326.59 351.569 327.731 351.12C328.872 350.672 329.911 350 330.788 349.143C331.666 348.287 332.363 347.265 332.839 346.135C333.314 345.006 333.56 343.793 333.56 342.567C333.56 341.342 333.314 340.128 332.839 338.999C332.363 337.87 331.666 336.847 330.788 335.991C329.911 335.135 328.872 334.463 327.731 334.014C326.59 333.566 325.371 333.35 324.146 333.379Z" fill="#CADDFF"/>
<path d="M119.876 353.513H324.146C327.008 353.45 329.732 352.269 331.734 350.223C333.735 348.177 334.856 345.429 334.856 342.567C334.856 339.705 333.735 336.957 331.734 334.911C329.732 332.865 327.008 331.684 324.146 331.621H119.876C117.014 331.684 114.291 332.865 112.289 334.911C110.287 336.957 109.166 339.705 109.166 342.567C109.166 345.429 110.287 348.177 112.289 350.223C114.291 352.269 117.014 353.45 119.876 353.513ZM324.146 335.132C326.119 335.132 328.011 335.916 329.406 337.311C330.802 338.705 331.585 340.597 331.585 342.57C331.585 344.542 330.802 346.434 329.406 347.829C328.011 349.224 326.119 350.007 324.146 350.007H119.876C117.903 350.007 116.011 349.224 114.616 347.829C113.221 346.434 112.437 344.542 112.437 342.57C112.437 340.597 113.221 338.705 114.616 337.311C116.011 335.916 117.903 335.132 119.876 335.132H324.146Z" fill="#000032"/>
<path d="M239.238 104.831L241.151 77.7375C242.447 77.6472 243.345 77.5887 243.606 77.5887C251.178 77.4984 253.633 75.0494 254.286 68.8338C254.881 63.1731 254.425 57.4513 252.942 51.956C252.734 51.1848 252.788 50.3663 253.096 49.6292L254.393 46.5798C254.52 46.0908 254.505 45.5757 254.35 45.0948C254.194 44.614 253.905 44.1874 253.516 43.8651L252.83 43.2967C250.368 41.2483 248.28 38.7874 246.661 36.0239C245.147 33.4846 242.575 28.7246 240.816 27.8799C235.842 25.5052 215.672 14.9547 204.396 33.3943C195.602 47.7645 209.97 67.5535 215.188 74.0347C216.453 75.6019 206.686 106.329 206.686 106.329L194.034 109.384C194.034 109.384 203.774 126.718 233.425 119.531C254.541 114.425 251.188 106.568 251.188 106.568L239.238 104.831Z" fill="white"/>
<path d="M219.752 123.064C224.503 123.023 229.232 122.417 233.839 121.257C243.935 118.819 250.157 115.382 252.336 111.041C253.734 108.252 252.899 106.133 252.804 105.904C252.687 105.625 252.501 105.381 252.263 105.195C252.025 105.009 251.742 104.887 251.443 104.842L241.108 103.333L242.798 79.3631L243.627 79.3206C251.789 79.2303 255.264 76.335 256.034 68.9985C256.653 63.1189 256.181 57.1757 254.642 51.4673C254.536 51.0736 254.56 50.6561 254.711 50.2773L255.987 47.2811C256.019 47.2052 256.045 47.1271 256.066 47.0473C256.291 46.2317 256.275 45.3686 256.021 44.5618C255.766 43.755 255.284 43.0389 254.632 42.4999L253.946 41.9314C251.641 40.0164 249.688 37.7133 248.175 35.1262C247.968 34.7808 247.74 34.393 247.501 33.9787C245.274 30.1696 243.43 27.184 241.571 26.2968L241.039 26.0418C223.504 17.5737 210.677 19.7412 202.892 32.4752C193.891 47.1855 207.106 66.7194 213.519 74.7997C213.44 77.5834 209.391 91.8315 205.267 104.858L193.577 107.679C193.313 107.742 193.067 107.866 192.859 108.041C192.65 108.216 192.485 108.436 192.377 108.685C192.268 108.935 192.219 109.205 192.232 109.477C192.246 109.748 192.323 110.013 192.456 110.25C192.828 110.871 199.975 123.064 219.752 123.064ZM249.61 108.135C249.544 108.659 249.376 109.164 249.116 109.623C248.096 111.488 244.652 115.031 233.015 117.841C210.868 123.196 200.501 114.58 196.983 110.478L207.079 108.04C207.373 107.968 207.643 107.822 207.864 107.617C208.085 107.411 208.25 107.153 208.344 106.866C218.413 75.2353 217.207 73.7372 216.559 72.935C210.714 65.6569 197.929 47.3289 205.894 34.308C215.99 17.8394 233.696 26.3924 239.514 29.2027L240.045 29.4631C241.076 29.9571 243.441 34.0158 244.451 35.7477C244.7 36.1727 244.929 36.5711 245.141 36.9271C246.875 39.8661 249.106 42.4816 251.736 44.6567L252.421 45.2199C252.539 45.3178 252.63 45.4445 252.685 45.5878C252.74 45.7311 252.757 45.8862 252.735 46.038L251.502 48.9226C251.043 50.0176 250.959 51.2334 251.263 52.3811C252.689 57.6725 253.129 63.1813 252.559 68.6319C252.028 73.6257 250.678 75.7294 243.611 75.8091C243.335 75.8091 242.405 75.8675 241.055 75.9631C240.632 75.9905 240.234 76.1704 239.934 76.4694C239.634 76.7684 239.452 77.1662 239.424 77.5888L237.506 104.682C237.475 105.124 237.613 105.561 237.891 105.905C238.168 106.25 238.566 106.477 239.004 106.542L249.61 108.135Z" fill="#000032"/>
<path d="M233.839 121.257C229.232 122.417 224.503 123.023 219.752 123.064C200.106 123.064 192.923 111.033 192.464 110.264L192.456 110.25C192.323 110.013 192.246 109.748 192.232 109.477C192.219 109.206 192.268 108.935 192.377 108.685C192.485 108.436 192.65 108.216 192.859 108.041C193.067 107.866 193.313 107.742 193.577 107.679L205.267 104.858L205.754 103.266L209.512 103.194L208.344 106.866C208.25 107.153 208.085 107.411 207.864 107.617C207.643 107.822 207.373 107.968 207.079 108.04L196.983 110.478C200.501 114.58 210.868 123.196 233.015 117.841C244.652 115.031 248.096 111.488 249.116 109.623C249.376 109.164 249.544 108.659 249.61 108.136L239.004 106.542C238.566 106.477 238.168 106.25 237.891 105.905C237.613 105.561 237.475 105.124 237.506 104.682L237.597 103.109L241.108 103.333L251.443 104.842C251.742 104.887 252.025 105.009 252.263 105.195C252.501 105.381 252.687 105.625 252.804 105.904C252.899 106.133 253.734 108.252 252.336 111.041C250.157 115.382 243.935 118.819 233.839 121.257Z" fill="white"/>
<path d="M210.607 9.95034C216.075 8.77097 222.356 9.61034 225.008 8.63816C229.29 7.06567 229.418 1.93913 235.327 0.499451C242.495 -1.24304 245.487 1.81694 248.287 6.07755C248.783 6.83651 249.191 7.64919 249.504 8.50004C254.01 20.5806 248.319 26.4721 245.784 28.3899C245.784 28.3899 229.657 36.7199 226.899 39.0999C224.317 41.3258 221.336 46.5958 223.212 54.1714C223.328 54.6406 223.292 55.1346 223.11 55.5824C222.928 56.0301 222.608 56.4084 222.197 56.6629C221.724 56.9496 221.159 57.0411 220.62 56.9181C220.082 56.7952 219.612 56.4674 219.311 56.0042C217.212 52.9654 212.632 47.0899 209.375 48.4817C205.278 50.2295 206.553 62.496 215.586 63.9145C216.994 64.1892 218.254 64.9676 219.129 66.1038C220.005 67.2401 220.436 68.6564 220.342 70.0875C220.162 71.9841 218.376 74.2791 215.719 74.8688C214.099 75.2406 212.499 74.5872 211.075 73.6788C205.177 69.9122 188.55 53.9589 186.489 39.679C184.002 22.4293 203.328 11.5175 210.607 9.95034Z" fill="#000032"/>
<path d="M243.192 79.0709C243.406 79.0747 243.619 79.0363 243.818 78.9579C244.018 78.8795 244.2 78.7626 244.354 78.6138C244.665 78.3135 244.845 77.9017 244.852 77.4692C244.86 77.0366 244.696 76.6187 244.395 76.3074C244.095 75.996 243.683 75.8168 243.25 75.809C243.133 75.809 237.437 75.5221 233.553 72.2231C233.222 71.9413 232.793 71.8023 232.36 71.8367C231.927 71.8711 231.526 72.076 231.244 72.4064C230.962 72.7368 230.823 73.1656 230.857 73.5985C230.892 74.0314 231.097 74.4329 231.427 74.7146C236.21 78.7734 242.841 79.0603 243.117 79.0709H243.192Z" fill="#000032"/>
</g>
<defs>
<filter id="filter0_d_15008_57107" x="0" y="0" width="455" height="343" filterUnits="userSpaceOnUse" color-interpolation-filters="sRGB">
<feFlood flood-opacity="0" result="BackgroundImageFix"/>
<feColorMatrix in="SourceAlpha" type="matrix" values="0 0 0 0 0 0 0 0 0 0 0 0 0 0 0 0 0 0 127 0" result="hardAlpha"/>
<feOffset dy="4"/>
<feGaussianBlur stdDeviation="2"/>
<feComposite in2="hardAlpha" operator="out"/>
<feColorMatrix type="matrix" values="0 0 0 0 0 0 0 0 0 0 0 0 0 0 0 0 0 0 0.25 0"/>
<feBlend mode="normal" in2="BackgroundImageFix" result="effect1_dropShadow_15008_57107"/>
<feBlend mode="normal" in="SourceGraphic" in2="effect1_dropShadow_15008_57107" result="shape"/>
</filter>
<clipPath id="clip0_15008_57107">
<rect width="447" height="335" fill="white" transform="matrix(-1 0 0 1 451 0)"/>
</clipPath>
</defs>
</svg>
