<svg width="121" height="34" viewBox="0 0 121 34" fill="none" xmlns="http://www.w3.org/2000/svg">
<g clip-path="url(#clip0_17198_5805)">
<path d="M73.5939 8.91831H61.9818V12.7962H73.5939V8.91831ZM69.6798 4.35435H65.5275V26.8564H69.6798V4.35435ZM48.6004 22.7546C47.8205 22.2636 47.2067 21.5992 46.7806 20.7471C46.3473 19.8949 46.1307 18.9345 46.1307 17.8729C46.1307 16.8114 46.3473 15.8437 46.7806 14.9988C47.2139 14.1466 47.8205 13.4823 48.6004 12.9912C49.3803 12.5002 50.2613 12.2618 51.2362 12.2618C52.2111 12.2618 53.0849 12.5002 53.8576 12.9768C54.6303 13.4534 55.2369 14.1178 55.6774 14.9699C56.118 15.822 56.3274 16.7897 56.3057 17.8801C56.3274 18.9489 56.118 19.9094 55.6774 20.7543C55.2369 21.6064 54.6303 22.278 53.8576 22.7618C53.0849 23.2529 52.2111 23.4912 51.2362 23.4912C50.2613 23.4912 49.3803 23.2457 48.6004 22.7618M56.0024 25.9971C57.4106 25.1883 58.5155 24.0834 59.3243 22.6752C60.1331 21.267 60.5303 19.6711 60.5303 17.8729C60.5303 16.0748 60.1259 14.4788 59.3243 13.0706C58.5155 11.6625 57.4106 10.5576 56.0024 9.74878C54.5942 8.93997 53.0055 8.54279 51.2362 8.54279C49.467 8.54279 47.8422 8.94719 46.434 9.74878C45.0258 10.5576 43.9209 11.6625 43.1121 13.0706C42.3033 14.4788 41.9061 16.082 41.9061 17.8729C41.9061 19.6638 42.3105 21.267 43.1121 22.6752C43.9209 24.0834 45.0258 25.1883 46.434 25.9971C47.8422 26.8059 49.4381 27.203 51.2362 27.203C53.0344 27.203 54.5942 26.7986 56.0024 25.9971ZM28.1781 22.7474C27.4271 22.2708 26.8349 21.6136 26.4089 20.7759C25.9756 19.9383 25.7589 18.9706 25.7589 17.8801C25.7589 16.7897 25.9756 15.8292 26.4089 14.9843C26.8422 14.1466 27.4271 13.4895 28.1781 13.0129C28.9292 12.5363 29.803 12.298 30.7995 12.298C31.7961 12.298 32.641 12.5435 33.3848 13.0273C34.1358 13.5184 34.7208 14.1755 35.1396 14.9988C35.5585 15.8292 35.7679 16.7897 35.7679 17.8729C35.7679 18.9561 35.5512 19.9238 35.118 20.7687C34.6847 21.6064 34.0997 22.2636 33.3487 22.7402C32.5977 23.2168 31.7455 23.4551 30.7923 23.4551C29.8391 23.4551 28.9219 23.2168 28.1709 22.7402M25.925 34.3523V22.4008L24.9068 22.9135C25.0873 23.614 25.5062 24.3 26.1633 24.9572C26.8205 25.6143 27.6293 26.1487 28.597 26.5603C29.5646 26.972 30.5684 27.1742 31.6083 27.1742C33.1754 27.1742 34.5763 26.7698 35.8112 25.9682C37.0461 25.1594 38.021 24.0617 38.7215 22.668C39.4219 21.2742 39.7758 19.6783 39.7758 17.8874C39.7758 16.0964 39.4219 14.5005 38.6998 13.1068C37.9849 11.713 37.01 10.6154 35.7751 9.82099C34.5402 9.02663 33.1248 8.62945 31.5361 8.62945C30.5395 8.62945 29.5791 8.82443 28.662 9.20717C27.7448 9.5899 26.9649 10.0954 26.3294 10.702C25.6939 11.3158 25.3112 11.973 25.174 12.6735L25.8889 12.9768L25.8239 8.92553H21.7366V34.3451H25.925V34.3523ZM14.0602 26.3004C15.3961 25.701 16.4288 24.8344 17.1582 23.6934C17.8876 22.5596 18.2486 21.2165 18.2486 19.6783C18.2486 18.7684 18.0681 17.9451 17.707 17.2085C17.3459 16.472 16.8188 15.8148 16.1255 15.2371C15.4323 14.6594 14.5946 14.1611 13.6052 13.7567C12.6159 13.3451 11.4966 13.0057 10.2545 12.7385C9.48177 12.5796 8.80296 12.3991 8.2108 12.1968C7.61864 11.9946 7.1348 11.7563 6.74484 11.4819C6.3621 11.2075 6.06602 10.8898 5.87827 10.5287C5.68329 10.1676 5.58941 9.77044 5.58941 9.33715C5.58941 8.74499 5.76272 8.23949 6.10213 7.82065C6.44154 7.4018 6.91094 7.06961 7.51754 6.83131C8.11692 6.593 8.83184 6.47746 9.64787 6.47746C10.7383 6.47746 11.7493 6.75187 12.6809 7.29348C13.6124 7.83509 14.414 8.62945 15.1001 9.67656L18.0248 6.81686C17.2304 5.48089 16.1327 4.44823 14.739 3.71886C13.3453 2.98949 11.6482 2.62842 9.64787 2.62842C8.10248 2.62842 6.69429 2.9245 5.40887 3.51666C4.12345 4.10882 3.10523 4.91762 2.34697 5.95029C1.58872 6.98296 1.20598 8.16728 1.20598 9.51047C1.20598 10.507 1.35763 11.4025 1.66816 12.1824C1.97146 12.9623 2.44085 13.67 3.0619 14.2911C3.68294 14.9121 4.45564 15.4393 5.37999 15.8581C6.29711 16.277 7.39477 16.6092 8.66575 16.8619C9.3229 16.9775 9.92951 17.1147 10.4856 17.288C11.0416 17.4613 11.5327 17.6563 11.9515 17.8801C12.3704 18.104 12.7242 18.3495 13.0058 18.6095C13.2875 18.8695 13.5041 19.1656 13.6558 19.4977C13.8002 19.8299 13.8796 20.1838 13.8796 20.5737C13.8796 21.1442 13.6991 21.6353 13.338 22.0541C12.977 22.473 12.4787 22.798 11.8432 23.0218C11.2077 23.2457 10.5072 23.3612 9.73452 23.3612C8.39855 23.3612 7.19979 23.0724 6.14546 22.4946C5.09113 21.9169 4.00791 20.8409 2.8958 19.2739L0 22.5308C1.09044 24.0545 2.39752 25.2099 3.93569 26.0043C5.46664 26.7986 7.27923 27.1958 9.36623 27.1958C11.1572 27.1958 12.7242 26.8925 14.0674 26.2931" fill="#000032"/>
<path d="M105.629 8.91846H101.477V26.8638H105.629V8.91846Z" fill="#FF4E00"/>
<path d="M103.549 6.08759C105.232 6.08759 106.597 4.72273 106.597 3.04013C106.597 1.35753 105.232 -0.00732422 103.549 -0.00732422C101.867 -0.00732422 100.502 1.35753 100.502 3.04013C100.502 4.72273 101.867 6.08759 103.549 6.08759Z" fill="#000032"/>
<path d="M120 9.22878H108.973V12.9045H120V9.22878ZM112.728 26.7986H115.941V7.38731C115.941 6.95402 116.014 6.59295 116.165 6.29687C116.31 6.00079 116.541 5.78415 116.844 5.6325C117.147 5.48807 117.53 5.40863 117.985 5.40863C118.281 5.40863 118.592 5.48085 118.924 5.6325C119.249 5.77693 119.567 5.96468 119.863 6.19577L121.155 3.09777C120.722 2.64281 120.173 2.28174 119.502 2.00733C118.83 1.73291 118.108 1.5957 117.342 1.5957C116.252 1.5957 115.291 1.84123 114.447 2.32507C113.609 2.81613 112.952 3.4805 112.475 4.33264C111.998 5.18477 111.76 6.14522 111.76 7.20678V26.7841H112.728V26.7986ZM81.3145 6.47019L80.9029 7.0479H86.3189C87.4311 7.0479 88.4204 7.22844 89.2942 7.58951C90.168 7.95059 90.9118 8.47775 91.5256 9.15657C92.1394 9.83539 92.6088 10.6586 92.941 11.6263C93.266 12.594 93.4321 13.6772 93.4321 14.876C93.4321 16.0747 93.266 17.1724 92.941 18.1473C92.6088 19.1222 92.1467 19.9454 91.5473 20.617C90.9479 21.2886 90.2041 21.8013 89.3159 22.1696C88.4276 22.5307 87.4311 22.7112 86.3189 22.7112H81.0112L81.3145 23.3612V6.47019ZM86.4923 26.7986C88.2182 26.7986 89.7852 26.517 91.1934 25.9465C92.6016 25.376 93.8004 24.5672 94.7825 23.5128C95.7718 22.4585 96.5373 21.1947 97.0789 19.736C97.6205 18.27 97.8949 16.6524 97.8949 14.8832C97.8949 13.1139 97.6205 11.5035 97.0789 10.052C96.5373 8.60052 95.7646 7.34398 94.7608 6.27521C93.7643 5.20643 92.5655 4.39041 91.1718 3.82713C89.778 3.25664 88.2182 2.975 86.4923 2.975H76.9238V26.7914H86.4923V26.7986Z" fill="#FF4E00"/>
</g>
<defs>
<clipPath id="clip0_17198_5805">
<rect width="121" height="34" fill="white"/>
</clipPath>
</defs>
</svg>
