<svg width="48" height="48" viewBox="0 0 48 48" fill="none" xmlns="http://www.w3.org/2000/svg">
<path d="M18.19 20.1972H8.5448V34.4918C8.5448 34.7806 8.66512 35.0453 8.90576 35.286C9.14644 35.5266 9.41115 35.6469 9.69991 35.6469H33.6037L18.19 20.1972ZM40.9929 43L35.0476 37.0908H9.69991C8.97858 37.0908 8.36507 36.838 7.85939 36.3324C7.35374 35.8267 7.10091 35.2132 7.10091 34.4918V13.4108C7.10091 12.6895 7.35374 12.076 7.85939 11.5703C8.36507 11.0647 8.97858 10.8118 9.69991 10.8118H10.8551L12.2989 12.2557H9.69991C9.41115 12.2557 9.14644 12.376 8.90576 12.6167C8.66512 12.8574 8.5448 13.1221 8.5448 13.4108V18.3201H16.2769L5 7.04323L6.04323 6L42 41.9568L40.9929 43Z" fill="#FF4E00"/>
<path d="M39.5906 36L38.5759 34.9338V20.3971H24.2566L22.3697 18.5177H38.5759V13.6023C38.5759 13.2649 38.4691 12.9878 38.2555 12.771C38.0419 12.5541 37.7689 12.4457 37.4367 12.4457H16.4241L15 11H37.4367C38.1481 11 38.7532 11.2531 39.2519 11.7594C39.7506 12.2657 40 12.88 40 13.6023V34.7069C40 34.9357 39.962 35.1579 39.8861 35.3733C39.8101 35.5887 39.7116 35.7976 39.5906 36Z" fill="#19CBB1"/>
</svg>
