<svg width="61" height="63" viewBox="0 0 61 63" fill="none" xmlns="http://www.w3.org/2000/svg">
<circle cx="23.5" cy="23.5" r="23.5" fill="#E6F0FF"/>
<path d="M18.7988 35.9616V34.0384H23.7988C25.0168 30.9423 26.9535 28.4006 29.609 26.4134C32.2644 24.4263 35.2507 23.2195 38.5681 22.7932L35.0825 19.3413L36.4575 17.9663L40.3036 21.9423C40.5601 22.1987 40.7211 22.488 40.7868 22.8101C40.8525 23.1322 40.8293 23.4407 40.7171 23.7356C40.6049 24.0304 40.4342 24.2772 40.2051 24.4759C39.9759 24.6747 39.6979 24.7837 39.371 24.8029C35.9222 24.9087 32.9719 25.9752 30.52 28.0024C28.0681 30.0296 26.3886 32.4215 25.4815 35.1779L25.2508 35.9616H18.7988ZM48.2219 40C48.2219 38.2307 48.6418 36.5761 49.4815 35.0361C50.3213 33.496 51.4479 32.4118 52.8613 31.7836C51.746 30.1843 50.5008 28.851 49.1258 27.7836C47.7508 26.7163 46.1931 25.9167 44.4527 25.3846L44.9863 23.5529C47.1979 24.2067 49.1089 25.1907 50.7195 26.5048C52.3301 27.8189 53.7396 29.5304 54.9479 31.6394C56.4447 32.0048 57.6851 32.9832 58.6691 34.5745C59.653 36.1659 60.145 37.9744 60.145 40C60.145 41.875 59.6955 43.6058 58.7965 45.1923C57.8974 46.7789 56.6146 47.851 54.9479 48.4087C53.8357 50.4119 52.4319 52.0969 50.7363 53.4639C49.0408 54.8309 47.0873 55.8413 44.8758 56.4952L44.3421 54.6634C46.1658 54.0897 47.7684 53.2684 49.1498 52.1995C50.5312 51.1306 51.7684 49.8029 52.8613 48.2164C51.528 47.5272 50.4214 46.4695 49.5416 45.0432C48.6618 43.617 48.2219 41.9359 48.2219 40ZM54.1835 46.5384C55.2091 46.5384 56.1386 45.8613 56.9719 44.5072C57.8052 43.153 58.2219 41.6506 58.2219 40C58.2219 38.2852 57.8132 36.7668 56.996 35.4447C56.1787 34.1226 55.2412 33.4616 54.1835 33.4616C53.1258 33.4616 52.1883 34.1226 51.371 35.4447C50.5537 36.7668 50.145 38.2852 50.145 40C50.145 41.6506 50.5617 43.153 51.395 44.5072C52.2283 45.8613 53.1578 46.5384 54.1835 46.5384ZM36.4815 62.1058L35.1065 60.7164L38.6642 57.1587C35.3469 56.7644 32.3581 55.5737 29.6979 53.5866C27.0376 51.5994 25.1033 49.0577 23.895 45.9616H18.895V44.0384H25.3469L25.5777 44.8221C26.4847 47.5785 28.1538 49.9704 30.5849 51.9976C33.016 54.0248 35.9559 55.0913 39.4046 55.1971C39.7636 55.2163 40.0601 55.3253 40.294 55.5241C40.528 55.7228 40.7011 55.9696 40.8133 56.2644C40.9254 56.5593 40.9487 56.8654 40.883 57.1827C40.8172 57.5 40.6562 57.7869 40.3998 58.0433L36.4815 62.1058Z" fill="#5FA2FB"/>
</svg>
