<svg width="270" height="180" viewBox="0 0 270 180" fill="none" xmlns="http://www.w3.org/2000/svg">
<g clip-path="url(#clip0_15743_41047)">
<path d="M88.0068 117.406C87.4138 117.406 86.8267 117.289 86.279 117.062C85.7313 116.835 85.2337 116.502 84.8146 116.083C84.3956 115.664 84.0633 115.167 83.8367 114.62C83.6102 114.072 83.4938 113.486 83.4941 112.893V4.77939C83.4938 4.18715 83.6102 3.60063 83.8367 3.05332C84.0633 2.50602 84.3956 2.00864 84.8146 1.58959C85.2337 1.17054 85.7313 0.83802 86.279 0.611021C86.8267 0.384023 87.4138 0.266989 88.0068 0.266602H239.127C239.72 0.266989 240.307 0.384023 240.854 0.611021C241.402 0.83802 241.9 1.17054 242.319 1.58959C242.738 2.00864 243.07 2.50602 243.297 3.05332C243.523 3.60063 243.64 4.18715 243.639 4.77939V112.288C243.639 113.644 243.1 114.945 242.139 115.904C241.179 116.863 239.876 117.402 238.518 117.402L88.0068 117.406Z" fill="white"/>
<path d="M238.522 117.623H88.0067C86.7523 117.62 85.5502 117.121 84.664 116.234C83.7778 115.348 83.2798 114.146 83.2793 112.894V4.77947C83.2798 3.52674 83.7778 2.32535 84.664 1.43879C85.5502 0.552236 86.7523 0.0528973 88.0067 0.050293H239.126C240.381 0.0528973 241.583 0.552236 242.469 1.43879C243.355 2.32535 243.853 3.52674 243.854 4.77947V112.288C243.853 113.701 243.291 115.056 242.292 116.056C241.292 117.056 239.937 117.619 238.522 117.623ZM88.0067 0.484063C86.8678 0.487187 85.7765 0.941022 84.972 1.74614C84.1675 2.55127 83.7154 3.64203 83.7146 4.77947V112.894C83.7151 114.032 84.1677 115.123 84.9731 115.929C85.7785 116.734 86.8708 117.188 88.0106 117.19H238.522C239.822 117.188 241.069 116.67 241.988 115.751C242.907 114.832 243.424 113.587 243.424 112.288V4.77947C243.424 3.64101 242.971 2.54936 242.165 1.74406C241.359 0.938773 240.266 0.485626 239.126 0.484063H88.0067Z" fill="#000032"/>
<path d="M234.512 59.4099H190.713C190.684 59.4101 190.656 59.4046 190.63 59.3937C190.603 59.3829 190.579 59.367 190.559 59.3469C190.539 59.3267 190.523 59.3028 190.512 59.2765C190.501 59.2502 190.496 59.222 190.496 59.1936V31.7352C190.496 31.7067 190.501 31.6785 190.512 31.6522C190.523 31.6259 190.539 31.602 190.559 31.5819C190.579 31.5618 190.603 31.5458 190.63 31.535C190.656 31.5242 190.684 31.5187 190.713 31.5188H234.512C234.54 31.5187 234.568 31.5242 234.595 31.535C234.621 31.5458 234.645 31.5618 234.665 31.5819C234.685 31.602 234.701 31.6259 234.712 31.6522C234.723 31.6785 234.729 31.7067 234.728 31.7352V59.1936C234.729 59.222 234.723 59.2502 234.712 59.2765C234.701 59.3028 234.685 59.3267 234.665 59.3469C234.645 59.367 234.621 59.3829 234.595 59.3937C234.568 59.4046 234.54 59.4101 234.512 59.4099ZM190.929 58.9772H234.295V31.9516H190.929V58.9772Z" fill="#000032"/>
<path d="M234.51 59.4099C234.469 59.4098 234.429 59.3986 234.395 59.3774L190.596 31.9181C190.572 31.9029 190.551 31.8832 190.534 31.8601C190.518 31.8369 190.506 31.8107 190.5 31.783C190.493 31.7552 190.492 31.7265 190.497 31.6985C190.502 31.6705 190.512 31.6436 190.527 31.6195C190.542 31.5954 190.562 31.5746 190.585 31.5581C190.609 31.5416 190.635 31.5299 190.663 31.5235C190.69 31.5172 190.719 31.5164 190.747 31.5211C190.775 31.5258 190.802 31.5361 190.826 31.5512L234.625 59.0105C234.665 59.0355 234.695 59.0728 234.712 59.1165C234.729 59.1603 234.731 59.2084 234.718 59.2534C234.705 59.2984 234.677 59.338 234.64 59.3662C234.602 59.3944 234.557 59.4098 234.51 59.4099Z" fill="#000032"/>
<path d="M190.712 59.4099C190.665 59.4098 190.62 59.3945 190.582 59.3662C190.545 59.338 190.518 59.2984 190.505 59.2534C190.492 59.2084 190.494 59.1603 190.51 59.1166C190.527 59.0728 190.557 59.0355 190.597 59.0105L234.399 31.5512C234.448 31.5207 234.507 31.5107 234.563 31.5235C234.619 31.5364 234.667 31.5709 234.698 31.6195C234.728 31.6682 234.738 31.727 234.726 31.783C234.713 31.8389 234.678 31.8875 234.629 31.9181L190.828 59.3774C190.793 59.3984 190.753 59.4097 190.712 59.4099Z" fill="#000032"/>
<path d="M136.422 59.4099H92.6229C92.5655 59.4099 92.5103 59.3871 92.4697 59.3466C92.4291 59.306 92.4063 59.2509 92.4062 59.1936V31.7352C92.4063 31.6778 92.4291 31.6228 92.4697 31.5822C92.5103 31.5416 92.5655 31.5188 92.6229 31.5188H136.422C136.45 31.5187 136.479 31.5242 136.505 31.535C136.531 31.5458 136.555 31.5618 136.575 31.5819C136.596 31.602 136.611 31.6259 136.622 31.6522C136.633 31.6785 136.639 31.7067 136.639 31.7352V59.1936C136.639 59.222 136.633 59.2502 136.622 59.2765C136.611 59.3028 136.596 59.3267 136.575 59.3469C136.555 59.367 136.531 59.3829 136.505 59.3937C136.479 59.4046 136.45 59.4101 136.422 59.4099ZM92.8396 58.9772H136.207V31.9516H92.8396V58.9772Z" fill="#000032"/>
<path d="M136.422 59.4099C136.381 59.4098 136.342 59.3986 136.307 59.3774L92.5078 31.9181C92.4837 31.9029 92.4628 31.8832 92.4463 31.8601C92.4298 31.8369 92.4181 31.8107 92.4117 31.783C92.4054 31.7552 92.4045 31.7265 92.4093 31.6985C92.414 31.6705 92.4243 31.6436 92.4394 31.6195C92.4545 31.5954 92.4743 31.5746 92.4975 31.5581C92.5207 31.5416 92.5469 31.5299 92.5747 31.5235C92.6024 31.5172 92.6312 31.5164 92.6592 31.5211C92.6873 31.5258 92.7142 31.5361 92.7383 31.5512L136.537 59.0105C136.577 59.0355 136.607 59.0728 136.624 59.1165C136.641 59.1603 136.643 59.2084 136.63 59.2534C136.617 59.2984 136.589 59.338 136.552 59.3662C136.515 59.3944 136.469 59.4098 136.422 59.4099Z" fill="#000032"/>
<path d="M92.6224 59.4099C92.5755 59.4098 92.5299 59.3944 92.4924 59.3662C92.455 59.338 92.4277 59.2984 92.4147 59.2534C92.4017 59.2084 92.4037 59.1603 92.4204 59.1165C92.4371 59.0728 92.4675 59.0355 92.5072 59.0105L136.305 31.5512C136.329 31.5361 136.356 31.5258 136.384 31.5211C136.412 31.5164 136.441 31.5172 136.469 31.5235C136.497 31.5299 136.523 31.5416 136.546 31.5581C136.569 31.5746 136.589 31.5954 136.604 31.6195C136.619 31.6436 136.629 31.6705 136.634 31.6985C136.639 31.7265 136.638 31.7552 136.632 31.783C136.625 31.8107 136.614 31.8369 136.597 31.8601C136.581 31.8832 136.56 31.9029 136.536 31.9181L92.7377 59.3774C92.703 59.3986 92.6631 59.4098 92.6224 59.4099Z" fill="#000032"/>
<path d="M234.511 24.787H92.6229C92.5655 24.787 92.5103 24.7642 92.4697 24.7236C92.4291 24.6831 92.4063 24.628 92.4062 24.5706V10.2198C92.4063 10.1624 92.4291 10.1074 92.4697 10.0668C92.5103 10.0262 92.5655 10.0034 92.6229 10.0034H234.511C234.539 10.0033 234.567 10.0088 234.594 10.0196C234.62 10.0305 234.644 10.0464 234.664 10.0665C234.684 10.0866 234.7 10.1105 234.711 10.1369C234.722 10.1632 234.727 10.1914 234.727 10.2198V24.5716C234.727 24.6 234.722 24.6281 234.711 24.6543C234.7 24.6805 234.684 24.7043 234.664 24.7243C234.644 24.7443 234.62 24.7601 234.593 24.7709C234.567 24.7817 234.539 24.7872 234.511 24.787ZM92.8396 24.3542H234.294V10.4362H92.8396V24.3542Z" fill="#000032"/>
<path d="M214.911 19.4814C216.143 19.4814 217.141 18.4835 217.141 17.2525C217.141 16.0216 216.143 15.0237 214.911 15.0237C213.68 15.0237 212.682 16.0216 212.682 17.2525C212.682 18.4835 213.68 19.4814 214.911 19.4814Z" fill="#FFECE3"/>
<path d="M221.417 19.4814C222.649 19.4814 223.647 18.4835 223.647 17.2525C223.647 16.0216 222.649 15.0237 221.417 15.0237C220.186 15.0237 219.188 16.0216 219.188 17.2525C219.188 18.4835 220.186 19.4814 221.417 19.4814Z" fill="#FFECE3"/>
<path d="M227.923 19.4814C229.155 19.4814 230.153 18.4835 230.153 17.2525C230.153 16.0216 229.155 15.0237 227.923 15.0237C226.692 15.0237 225.693 16.0216 225.693 17.2525C225.693 18.4835 226.692 19.4814 227.923 19.4814Z" fill="#FFECE3"/>
<path d="M185.467 59.4099H141.668C141.639 59.4101 141.611 59.4046 141.585 59.3937C141.558 59.3829 141.534 59.367 141.514 59.3469C141.494 59.3267 141.478 59.3028 141.467 59.2765C141.457 59.2502 141.451 59.222 141.451 59.1936V31.7352C141.451 31.7067 141.457 31.6785 141.467 31.6522C141.478 31.6259 141.494 31.602 141.514 31.5819C141.534 31.5618 141.558 31.5458 141.585 31.535C141.611 31.5242 141.639 31.5187 141.668 31.5188H185.467C185.495 31.5187 185.524 31.5242 185.55 31.535C185.576 31.5458 185.6 31.5618 185.62 31.5819C185.64 31.602 185.656 31.6259 185.667 31.6522C185.678 31.6785 185.684 31.7067 185.683 31.7352V59.1936C185.684 59.222 185.678 59.2502 185.667 59.2765C185.656 59.3028 185.64 59.3267 185.62 59.3469C185.6 59.367 185.576 59.3829 185.55 59.3937C185.524 59.4046 185.495 59.4101 185.467 59.4099ZM141.885 58.9772H185.254V31.9516H141.885V58.9772Z" fill="#000032"/>
<path d="M185.467 59.4099C185.426 59.4098 185.386 59.3986 185.352 59.3774L141.553 31.9181C141.504 31.8875 141.469 31.8389 141.457 31.783C141.444 31.727 141.454 31.6682 141.484 31.6195C141.515 31.5709 141.564 31.5364 141.62 31.5235C141.676 31.5107 141.735 31.5207 141.783 31.5512L185.582 59.0105C185.622 59.0355 185.652 59.0728 185.669 59.1166C185.686 59.1603 185.688 59.2084 185.675 59.2534C185.662 59.2984 185.634 59.338 185.597 59.3662C185.559 59.3945 185.514 59.4098 185.467 59.4099Z" fill="#000032"/>
<path d="M141.667 59.4099C141.62 59.4098 141.575 59.3945 141.537 59.3662C141.5 59.338 141.473 59.2984 141.46 59.2534C141.447 59.2084 141.449 59.1603 141.465 59.1166C141.482 59.0728 141.512 59.0355 141.552 59.0105L185.352 31.5512C185.401 31.5207 185.46 31.5107 185.516 31.5235C185.543 31.5299 185.57 31.5416 185.593 31.5581C185.616 31.5746 185.636 31.5954 185.651 31.6195C185.666 31.6436 185.676 31.6705 185.681 31.6985C185.686 31.7265 185.685 31.7552 185.679 31.783C185.672 31.8107 185.661 31.8369 185.644 31.8601C185.628 31.8832 185.607 31.903 185.583 31.9181L141.783 59.3774C141.748 59.3986 141.708 59.4098 141.667 59.4099Z" fill="#000032"/>
<path d="M185.344 64.9958H141.791V99.6788H185.344V64.9958Z" fill="white"/>
<path d="M185.344 99.8953H141.791C141.762 99.8954 141.734 99.8899 141.708 99.8791C141.681 99.8682 141.658 99.8523 141.637 99.8322C141.617 99.8121 141.601 99.7882 141.59 99.7618C141.58 99.7355 141.574 99.7073 141.574 99.6789V64.9959C141.574 64.9385 141.597 64.8835 141.638 64.8429C141.678 64.8023 141.733 64.7795 141.791 64.7795H185.344C185.372 64.7795 185.4 64.7851 185.427 64.796C185.453 64.8069 185.477 64.8228 185.497 64.8429C185.517 64.863 185.533 64.8869 185.544 64.9131C185.555 64.9394 185.56 64.9675 185.56 64.9959V99.6789C185.56 99.7073 185.555 99.7355 185.544 99.7618C185.533 99.7882 185.517 99.8121 185.497 99.8322C185.477 99.8523 185.453 99.8682 185.427 99.8791C185.4 99.8899 185.372 99.8954 185.344 99.8953ZM142.01 99.4625H185.129V65.2133H142.008L142.01 99.4625Z" fill="#FFECE3"/>
<path d="M178.261 74.3815H148.871C148.841 74.3835 148.811 74.3794 148.783 74.3694C148.755 74.3594 148.729 74.3438 148.708 74.3234C148.686 74.3031 148.669 74.2785 148.657 74.2512C148.645 74.2239 148.639 74.1944 148.639 74.1646C148.639 74.1349 148.645 74.1054 148.657 74.0781C148.669 74.0508 148.686 74.0262 148.708 74.0059C148.729 73.9855 148.755 73.9699 148.783 73.9599C148.811 73.9499 148.841 73.9458 148.871 73.9478H178.261C178.291 73.9458 178.321 73.9499 178.349 73.9599C178.377 73.9699 178.403 73.9855 178.425 74.0059C178.446 74.0262 178.464 74.0508 178.476 74.0781C178.487 74.1054 178.494 74.1349 178.494 74.1646C178.494 74.1944 178.487 74.2239 178.476 74.2512C178.464 74.2785 178.446 74.3031 178.425 74.3234C178.403 74.3438 178.377 74.3594 178.349 74.3694C178.321 74.3794 178.291 74.3835 178.261 74.3815Z" fill="#FFECE3"/>
<path d="M178.261 79.8295H148.871C148.813 79.8295 148.758 79.8067 148.718 79.7661C148.677 79.7256 148.654 79.6705 148.654 79.6131C148.654 79.5557 148.677 79.5007 148.718 79.4601C148.758 79.4195 148.813 79.3967 148.871 79.3967H178.261C178.319 79.3967 178.374 79.4195 178.415 79.4601C178.455 79.5007 178.478 79.5557 178.478 79.6131C178.478 79.6705 178.455 79.7256 178.415 79.7661C178.374 79.8067 178.319 79.8295 178.261 79.8295Z" fill="#FFECE3"/>
<path d="M178.261 85.2787H148.871C148.841 85.2807 148.811 85.2766 148.783 85.2666C148.755 85.2566 148.729 85.241 148.708 85.2206C148.686 85.2003 148.669 85.1757 148.657 85.1484C148.645 85.1211 148.639 85.0916 148.639 85.0619C148.639 85.0321 148.645 85.0026 148.657 84.9753C148.669 84.948 148.686 84.9234 148.708 84.9031C148.729 84.8827 148.755 84.8671 148.783 84.8571C148.811 84.8471 148.841 84.843 148.871 84.845H178.261C178.291 84.843 178.321 84.8471 178.349 84.8571C178.377 84.8671 178.403 84.8827 178.425 84.9031C178.446 84.9234 178.464 84.948 178.476 84.9753C178.487 85.0026 178.494 85.0321 178.494 85.0619C178.494 85.0916 178.487 85.1211 178.476 85.1484C178.464 85.1757 178.446 85.2003 178.425 85.2206C178.403 85.241 178.377 85.2566 178.349 85.2666C178.321 85.2766 178.291 85.2807 178.261 85.2787Z" fill="#FFECE3"/>
<path d="M178.261 90.727H148.871C148.841 90.729 148.811 90.7249 148.783 90.7149C148.755 90.7049 148.729 90.6892 148.708 90.6689C148.686 90.6486 148.669 90.624 148.657 90.5967C148.645 90.5693 148.639 90.5399 148.639 90.5101C148.639 90.4803 148.645 90.4509 148.657 90.4236C148.669 90.3962 148.686 90.3716 148.708 90.3513C148.729 90.331 148.755 90.3153 148.783 90.3053C148.811 90.2953 148.841 90.2912 148.871 90.2932H178.261C178.291 90.2912 178.321 90.2953 178.349 90.3053C178.377 90.3153 178.403 90.331 178.425 90.3513C178.446 90.3716 178.464 90.3962 178.476 90.4236C178.487 90.4509 178.494 90.4803 178.494 90.5101C178.494 90.5399 178.487 90.5693 178.476 90.5967C178.464 90.624 178.446 90.6486 178.425 90.6689C178.403 90.6892 178.377 90.7049 178.349 90.7149C178.321 90.7249 178.291 90.729 178.261 90.727Z" fill="#FFECE3"/>
<path d="M136.176 64.9958H92.623V99.6788H136.176V64.9958Z" fill="white"/>
<path d="M136.176 99.8953H92.6229C92.5655 99.8953 92.5103 99.8725 92.4697 99.8319C92.4291 99.7913 92.4063 99.7363 92.4062 99.6789V64.9959C92.4065 64.9386 92.4294 64.8837 92.47 64.8432C92.5106 64.8027 92.5655 64.7798 92.6229 64.7795H136.176C136.233 64.7795 136.288 64.8023 136.329 64.8429C136.369 64.8835 136.392 64.9385 136.392 64.9959V99.6789C136.392 99.7073 136.387 99.7355 136.376 99.7618C136.365 99.7882 136.349 99.8121 136.329 99.8322C136.309 99.8523 136.285 99.8682 136.259 99.8791C136.232 99.8899 136.204 99.8954 136.176 99.8953ZM92.8416 99.4625H135.961V65.2133H92.8396L92.8416 99.4625Z" fill="#FFECE3"/>
<path d="M129.096 74.3815H99.703C99.6732 74.3835 99.6434 74.3794 99.6153 74.3694C99.5872 74.3594 99.5615 74.3438 99.5397 74.3234C99.5179 74.3031 99.5006 74.2785 99.4887 74.2512C99.4768 74.2239 99.4707 74.1944 99.4707 74.1646C99.4707 74.1349 99.4768 74.1054 99.4887 74.0781C99.5006 74.0508 99.5179 74.0262 99.5397 74.0059C99.5615 73.9855 99.5872 73.9699 99.6153 73.9599C99.6434 73.9499 99.6732 73.9458 99.703 73.9478H129.096C129.151 73.9515 129.203 73.9759 129.241 74.0162C129.278 74.0565 129.299 74.1095 129.299 74.1646C129.299 74.2198 129.278 74.2728 129.241 74.3131C129.203 74.3534 129.151 74.3778 129.096 74.3815Z" fill="#FFECE3"/>
<path d="M129.096 79.8295H99.703C99.6455 79.8295 99.5904 79.8067 99.5498 79.7661C99.5092 79.7256 99.4863 79.6705 99.4863 79.6131C99.4863 79.5557 99.5092 79.5007 99.5498 79.4601C99.5904 79.4195 99.6455 79.3967 99.703 79.3967H129.096C129.154 79.3967 129.209 79.4195 129.25 79.4601C129.29 79.5007 129.313 79.5557 129.313 79.6131C129.313 79.6705 129.29 79.7256 129.25 79.7661C129.209 79.8067 129.154 79.8295 129.096 79.8295Z" fill="#FFECE3"/>
<path d="M129.096 85.2787H99.703C99.6732 85.2807 99.6434 85.2766 99.6153 85.2666C99.5872 85.2566 99.5615 85.241 99.5397 85.2206C99.5179 85.2003 99.5006 85.1757 99.4887 85.1484C99.4768 85.1211 99.4707 85.0916 99.4707 85.0619C99.4707 85.0321 99.4768 85.0026 99.4887 84.9753C99.5006 84.948 99.5179 84.9234 99.5397 84.9031C99.5615 84.8827 99.5872 84.8671 99.6153 84.8571C99.6434 84.8471 99.6732 84.843 99.703 84.845H129.096C129.151 84.8487 129.203 84.8731 129.241 84.9134C129.278 84.9537 129.299 85.0067 129.299 85.0619C129.299 85.117 129.278 85.17 129.241 85.2103C129.203 85.2506 129.151 85.275 129.096 85.2787Z" fill="#FFECE3"/>
<path d="M129.096 90.727H99.703C99.6732 90.729 99.6434 90.7249 99.6153 90.7149C99.5872 90.7049 99.5615 90.6892 99.5397 90.6689C99.5179 90.6486 99.5006 90.624 99.4887 90.5967C99.4768 90.5693 99.4707 90.5399 99.4707 90.5101C99.4707 90.4803 99.4768 90.4509 99.4887 90.4236C99.5006 90.3962 99.5179 90.3716 99.5397 90.3513C99.5615 90.331 99.5872 90.3153 99.6153 90.3053C99.6434 90.2953 99.6732 90.2912 99.703 90.2932H129.096C129.151 90.2969 129.203 90.3214 129.241 90.3616C129.278 90.4019 129.299 90.455 129.299 90.5101C129.299 90.5652 129.278 90.6183 129.241 90.6586C129.203 90.6988 129.151 90.7233 129.096 90.727Z" fill="#FFECE3"/>
<path d="M270 92.5615H134.938V170.425H270V92.5615Z" fill="#FFECE3"/>
<path d="M251.525 53.9834H212.758C211.895 53.9847 211.068 54.328 210.459 54.938C209.849 55.5479 209.507 56.3745 209.508 57.2362V74.3323C209.507 74.7591 209.59 75.1819 209.753 75.5765C209.916 75.9711 210.155 76.3298 210.457 76.6319C210.759 76.934 211.118 77.1737 211.513 77.3373C211.907 77.5009 212.33 77.585 212.758 77.585H251.525C251.953 77.585 252.376 77.5009 252.77 77.3373C253.165 77.1737 253.524 76.934 253.826 76.6319C254.128 76.3298 254.367 75.9711 254.53 75.5765C254.693 75.1819 254.776 74.7591 254.775 74.3323V57.2362C254.776 56.3745 254.434 55.5479 253.824 54.938C253.215 54.328 252.388 53.9847 251.525 53.9834Z" fill="#FF4E00"/>
<path d="M214.213 70.902V60.5H220.396V62.1409H215.927V64.822H219.443V66.4482H215.927V70.902H214.213Z" fill="white"/>
<path d="M222.068 70.902V60.5H225.818C226.775 60.5 227.537 60.7784 228.104 61.3351C228.68 61.8821 228.968 62.5902 228.968 63.4595C228.968 64.192 228.763 64.7976 228.353 65.2762C227.952 65.745 227.371 66.0624 226.609 66.2285L230.477 70.902H228.367L224.558 66.331H223.782V70.902H222.068ZM223.782 64.8366H225.613C226.121 64.8366 226.521 64.7194 226.815 64.485C227.108 64.2408 227.254 63.899 227.254 63.4595C227.254 63.0199 227.108 62.683 226.815 62.4486C226.521 62.2044 226.121 62.0823 225.613 62.0823H223.782V64.8366Z" fill="white"/>
<path d="M231.511 70.902V60.5H237.766V62.1409H233.225V64.8073H236.887V66.4482H233.225V69.2612H237.766V70.902H231.511Z" fill="white"/>
<path d="M239.737 70.902V60.5H245.993V62.1409H241.451V64.8073H245.114V66.4482H241.451V69.2612H245.993V70.902H239.737Z" fill="white"/>
<path d="M248.228 67.4152L247.92 64.5436V60.5H249.546V64.5436L249.224 67.4152H248.228ZM248.726 71.0193C248.384 71.0193 248.086 70.8972 247.832 70.653C247.588 70.399 247.466 70.0963 247.466 69.7446C247.466 69.4028 247.588 69.1049 247.832 68.8509C248.086 68.597 248.384 68.47 248.726 68.47C249.077 68.47 249.375 68.597 249.62 68.8509C249.874 69.1049 250 69.4028 250 69.7446C250 70.0963 249.874 70.399 249.62 70.653C249.375 70.8972 249.077 71.0193 248.726 71.0193Z" fill="white"/>
<path d="M44.7877 20.6214C45.0001 19.7792 44.8689 18.8873 44.4231 18.1416C43.9773 17.3959 43.2533 16.8575 42.4102 16.6447C42.2804 16.6135 42.1488 16.5899 42.0163 16.5739C42.0212 15.2375 41.8253 13.9079 41.4352 12.6296C41.5572 12.576 41.6759 12.5153 41.7907 12.4476C42.5239 11.9957 43.0496 11.2738 43.2542 10.4379C43.4587 9.60205 43.3257 8.71935 42.8839 7.98063C42.442 7.2419 41.7269 6.70649 40.893 6.49013C40.0591 6.27377 39.1734 6.39383 38.4274 6.82437C38.314 6.89363 38.2049 6.9695 38.1004 7.05158C37.1584 6.10331 36.0795 5.3013 34.8996 4.67224C34.9481 4.54865 34.9889 4.42218 35.0217 4.29355C35.127 3.87678 35.1489 3.4434 35.0865 3.01815C35.024 2.5929 34.8782 2.18411 34.6575 1.81511C34.4369 1.44611 34.1456 1.12413 33.8003 0.867564C33.455 0.610995 33.0626 0.424857 32.6453 0.319778C32.228 0.214699 31.794 0.192737 31.3682 0.255145C30.9424 0.317553 30.5331 0.46311 30.1636 0.683504C29.7942 0.903899 29.4718 1.19482 29.2149 1.53964C28.958 1.88447 28.7716 2.27646 28.6664 2.69322C28.6352 2.82289 28.6115 2.95426 28.5955 3.08666C27.2584 3.08221 25.9282 3.27782 24.6491 3.66699C24.5958 3.54515 24.5353 3.42658 24.4679 3.31191C24.2506 2.93585 23.9605 2.60674 23.6146 2.34373C23.2687 2.08071 22.8738 1.88906 22.453 1.77993C22.0322 1.6708 21.5939 1.64636 21.1635 1.70805C20.7332 1.76974 20.3194 1.91632 19.9464 2.13925C19.5733 2.36219 19.2483 2.65702 18.9905 3.00659C18.7326 3.35615 18.5469 3.75346 18.4442 4.17539C18.3416 4.59731 18.324 5.03541 18.3925 5.46419C18.4611 5.89296 18.6143 6.30384 18.8433 6.67289C18.9123 6.78648 18.9879 6.89586 19.0699 7.00043C18.1208 7.94167 17.3187 9.01993 16.6904 10.1991C16.5665 10.1508 16.4399 10.1097 16.3113 10.0762C15.479 9.89521 14.6089 10.0447 13.885 10.4931C13.1612 10.9414 12.6404 11.6535 12.4328 12.4785C12.2253 13.3035 12.3473 14.1768 12.773 14.9137C13.1987 15.6505 13.8947 16.1929 14.7138 16.4263C14.8435 16.4584 14.9751 16.4824 15.1078 16.4981C15.103 17.8344 15.2985 19.1639 15.6878 20.4424C15.5662 20.4956 15.4478 20.5561 15.3333 20.6234C14.5866 21.0687 14.0477 21.792 13.835 22.6341C13.6223 23.4763 13.7533 24.3683 14.1992 25.114C14.6451 25.8597 15.3693 26.398 16.2125 26.6104C17.0558 26.8228 17.949 26.692 18.6956 26.2467C18.8095 26.1781 18.919 26.1025 19.0236 26.0204C19.9654 26.9689 21.0443 27.7709 22.2244 28.3998C22.1759 28.5235 22.1348 28.6499 22.1013 28.7785C21.8888 29.6202 22.0198 30.5117 22.4655 31.2569C22.9112 32.0021 23.635 32.54 24.4778 32.7522C25.3205 32.9645 26.2132 32.8336 26.9594 32.3885C27.7056 31.9434 28.2441 31.2205 28.4566 30.3788C28.4887 30.2493 28.5127 30.1179 28.5285 29.9853C29.8644 29.9917 31.1937 29.7977 32.4719 29.4099C32.5252 29.5318 32.5857 29.6504 32.6531 29.765C32.8741 30.1339 33.1657 30.4558 33.5112 30.7121C33.8567 30.9685 34.2494 31.1544 34.6668 31.2592C35.0842 31.364 35.5182 31.3857 35.9441 31.323C36.3699 31.2603 36.7792 31.1144 37.1486 30.8937C37.5179 30.673 37.8402 30.3818 38.0969 30.0368C38.3536 29.6917 38.5397 29.2995 38.6447 28.8826C38.7496 28.4657 38.7713 28.0323 38.7085 27.607C38.6457 27.1817 38.4997 26.7729 38.2787 26.404C38.2091 26.2909 38.1335 26.1815 38.0522 26.0765C39.0007 25.1348 39.8027 24.0566 40.4316 22.8778C40.5554 22.9263 40.6821 22.9673 40.8108 23.0008C41.2283 23.1055 41.6625 23.1271 42.0884 23.0642C42.5143 23.0013 42.9236 22.8551 43.2929 22.6342C43.6623 22.4132 43.9844 22.1217 44.2409 21.7764C44.4973 21.431 44.6831 21.0385 44.7877 20.6214ZM34.4633 18.0217C34.1684 19.1868 33.5343 20.2384 32.6411 21.0436C31.7479 21.8488 30.6358 22.3715 29.4452 22.5457C28.2547 22.7198 27.0391 22.5375 25.9523 22.0219C24.8654 21.5063 23.956 20.6804 23.339 19.6487C22.722 18.617 22.425 17.4258 22.4857 16.2256C22.5464 15.0255 22.9619 13.8702 23.6799 12.9058C24.3978 11.9414 25.3859 11.2113 26.5192 10.8076C27.6525 10.4039 28.8802 10.3448 30.0472 10.6378C30.823 10.8323 31.5528 11.1778 32.1948 11.6543C32.8368 12.1309 33.3784 12.7292 33.7886 13.4151C34.1988 14.1009 34.4695 14.8608 34.5853 15.6513C34.7011 16.4418 34.6596 17.2473 34.4633 18.0217Z" fill="white"/>
<path d="M25.282 33.0719C24.7495 33.0719 24.224 32.9505 23.7456 32.717C23.2671 32.4836 22.8483 32.1442 22.521 31.7246C22.1937 31.3051 21.9666 30.8165 21.8569 30.2961C21.7473 29.7757 21.758 29.2371 21.8882 28.7214C21.9059 28.6496 21.9285 28.5749 21.9541 28.4971C20.8741 27.9026 19.8801 27.164 18.9996 26.3017C18.9326 26.3489 18.8676 26.3903 18.8026 26.4286C18.4087 26.6637 17.9723 26.819 17.5184 26.8857C17.0644 26.9523 16.6017 26.929 16.1568 26.817C15.7118 26.705 15.2933 26.5066 14.9252 26.233C14.557 25.9595 14.2465 25.6162 14.0112 25.2227C13.5371 24.4274 13.3979 23.4769 13.624 22.5793C13.8501 21.6816 14.4232 20.9101 15.2177 20.4335C15.2817 20.3962 15.3496 20.3588 15.4225 20.3224C15.0798 19.1391 14.8996 17.9148 14.8868 16.683C14.806 16.6693 14.7302 16.6535 14.6583 16.6349C13.7686 16.4002 13.0074 15.8247 12.5398 15.0333C12.0722 14.2418 11.9359 13.2981 12.1603 12.4069C12.3848 11.5157 12.952 10.7488 13.739 10.2725C14.5259 9.79625 15.4691 9.649 16.3641 9.86272C16.4359 9.88042 16.5098 9.90206 16.5876 9.92862C17.1825 8.84994 17.9217 7.85721 18.7849 6.9778C18.7366 6.90993 18.6952 6.84502 18.6568 6.78108C18.1821 5.98617 18.0425 5.0357 18.2685 4.1381C18.4944 3.2405 19.0676 2.46904 19.8623 1.99288C20.2562 1.75778 20.6925 1.60247 21.1465 1.53584C21.6005 1.46921 22.0632 1.49255 22.5081 1.60453C22.9531 1.71651 23.3715 1.91495 23.7397 2.18849C24.1078 2.46204 24.4184 2.80534 24.6537 3.19879C24.6921 3.2637 24.7295 3.33157 24.7659 3.40436C25.9506 3.06122 27.1766 2.8812 28.4099 2.86928C28.4237 2.78862 28.4395 2.71288 28.4582 2.64108C28.5645 2.19058 28.7594 1.7657 29.0317 1.39117C29.304 1.01663 29.6481 0.699929 30.0441 0.459494C30.4401 0.219059 30.8801 0.0596951 31.3383 -0.0093218C31.7965 -0.0783387 32.264 -0.0556293 32.7133 0.0574845C33.1627 0.170598 33.5851 0.371857 33.9558 0.649544C34.3266 0.927231 34.6383 1.2758 34.8729 1.67496C35.1075 2.07412 35.2602 2.51589 35.3222 2.97457C35.3842 3.43324 35.3543 3.89966 35.2341 4.34665C35.2154 4.41846 35.1937 4.49321 35.1681 4.57092C36.2481 5.16546 37.2421 5.90404 38.1227 6.76633C38.1887 6.71911 38.2537 6.67682 38.3197 6.63846C39.1163 6.16355 40.0693 6.02416 40.9688 6.25095C41.8684 6.47775 42.6409 7.05215 43.1165 7.8478C43.592 8.64345 43.7315 9.59517 43.5045 10.4936C43.2774 11.392 42.7022 12.1635 41.9056 12.6385C41.8406 12.6768 41.7736 12.7142 41.6997 12.7506C42.0428 13.9338 42.2231 15.1582 42.2355 16.3899C42.3162 16.4037 42.3921 16.4194 42.465 16.4381C43.3546 16.6728 44.1158 17.2482 44.5834 18.0397C45.051 18.8312 45.1874 19.7748 44.9629 20.6661C44.7384 21.5573 44.1712 22.3242 43.3843 22.8005C42.5973 23.2767 41.6541 23.424 40.7592 23.2103C40.6853 23.1916 40.6124 23.1699 40.5346 23.1444C39.9401 24.223 39.2012 25.2157 38.3384 26.0952C38.3857 26.1621 38.428 26.227 38.4664 26.2919C38.9408 27.0876 39.08 28.0387 38.8532 28.9367C38.6265 29.8347 38.0525 30.6062 37.257 31.0821C36.8631 31.3173 36.4267 31.4726 35.9726 31.5392C35.5186 31.6059 35.0558 31.5825 34.6109 31.4704C34.1659 31.3583 33.7474 31.1597 33.3793 30.886C33.0112 30.6123 32.7007 30.2688 32.4656 29.8752C32.4282 29.8122 32.3908 29.7444 32.3543 29.6706C31.1696 30.0133 29.9437 30.1933 28.7103 30.2057C28.6965 30.2863 28.6798 30.3621 28.6621 30.4349C28.4723 31.1877 28.0368 31.8559 27.4243 32.334C26.8119 32.8121 26.0574 33.0728 25.28 33.0749L25.282 33.0719ZM19.0202 25.804C19.0488 25.8039 19.0771 25.8095 19.1035 25.8205C19.1299 25.8315 19.1538 25.8476 19.1739 25.868C20.1012 26.8011 21.1636 27.5899 22.3254 28.208C22.3717 28.2334 22.4071 28.2748 22.4252 28.3243C22.4433 28.3738 22.4429 28.4282 22.4239 28.4775C22.2736 28.8663 22.2045 29.2817 22.2208 29.6982C22.2372 30.1147 22.3388 30.5234 22.5193 30.8993C22.6997 31.2751 22.9553 31.6101 23.2702 31.8836C23.5851 32.1571 23.9528 32.3633 24.3505 32.4896C24.7482 32.6159 25.1676 32.6596 25.5829 32.618C25.9981 32.5764 26.4005 32.4504 26.7651 32.2477C27.1298 32.045 27.4491 31.7699 27.7033 31.4393C27.9576 31.1088 28.1414 30.7298 28.2435 30.3257C28.2732 30.2052 28.2953 30.083 28.3095 29.9598C28.3162 29.9073 28.3418 29.8592 28.3815 29.8242C28.4212 29.7893 28.4723 29.77 28.5252 29.7699C28.5406 29.7689 28.556 29.7689 28.5715 29.7699C29.8714 29.7704 31.1641 29.5782 32.4075 29.1994C32.4583 29.1841 32.513 29.1878 32.5612 29.2099C32.6095 29.232 32.648 29.271 32.6695 29.3194C32.836 29.7045 33.0802 30.0512 33.3867 30.3379C33.6933 30.6246 34.0556 30.8451 34.4512 30.9859C34.8469 31.1266 35.2673 31.1845 35.6862 31.1559C36.1052 31.1273 36.5138 31.0128 36.8866 30.8197C37.2594 30.6265 37.5883 30.3587 37.853 30.033C38.1176 29.7073 38.3122 29.3307 38.4248 28.9266C38.5373 28.5225 38.5653 28.0996 38.5071 27.6842C38.4489 27.2689 38.3056 26.8699 38.0863 26.5122C38.0215 26.4061 37.9505 26.304 37.8735 26.2063C37.8411 26.1646 37.8251 26.1124 37.8286 26.0597C37.832 26.0069 37.8547 25.9573 37.8922 25.9201C38.8262 24.9941 39.6154 23.933 40.2333 22.7726C40.2588 22.7264 40.3001 22.691 40.3497 22.6729C40.3993 22.6548 40.4538 22.6553 40.5031 22.6742C40.6187 22.72 40.7372 22.7585 40.8577 22.7893C41.2474 22.8873 41.6527 22.9076 42.0503 22.8491C42.448 22.7907 42.8301 22.6545 43.1751 22.4484C43.52 22.2423 43.8208 21.9704 44.0605 21.6481C44.3001 21.3259 44.4738 20.9596 44.5716 20.5703C44.6798 20.1504 44.6969 19.7123 44.6218 19.2853C44.5467 18.8583 44.3811 18.4523 44.1362 18.0944C43.8912 17.7365 43.5725 17.435 43.2014 17.2101C42.8303 16.9851 42.4153 16.842 41.9843 16.7903C41.9319 16.7838 41.8836 16.7582 41.8488 16.7185C41.8139 16.6788 41.7949 16.6277 41.7953 16.5749C41.7996 15.2602 41.6071 13.9523 41.224 12.6945C41.2082 12.644 41.2116 12.5895 41.2336 12.5414C41.2556 12.4933 41.2946 12.455 41.3432 12.4339C41.7414 12.2601 42.0978 12.0035 42.3887 11.6812C42.6796 11.3589 42.8983 10.9783 43.0301 10.5648C43.162 10.1513 43.2039 9.71446 43.1531 9.28349C43.1024 8.85252 42.9601 8.43733 42.7358 8.06567C42.5304 7.72041 42.2587 7.41907 41.9363 7.17898C41.614 6.93888 41.2473 6.76476 40.8573 6.6666C40.4674 6.56844 40.0619 6.54818 39.6641 6.60699C39.2663 6.66579 38.884 6.80251 38.5393 7.00928C38.4331 7.07359 38.3308 7.14421 38.233 7.22075C38.1912 7.25312 38.1389 7.26909 38.0862 7.26565C38.0334 7.2622 37.9836 7.23959 37.9464 7.20206C37.0191 6.26864 35.9567 5.47953 34.7948 4.86108C34.7485 4.83594 34.713 4.79481 34.6948 4.74538C34.6767 4.69595 34.6772 4.64162 34.6963 4.59256C34.7416 4.47687 34.7801 4.35864 34.8116 4.23846C35.008 3.45243 34.8847 2.62071 34.4687 1.92523C34.0527 1.22975 33.3778 0.727128 32.5917 0.52731C32.2019 0.429297 31.7967 0.408954 31.399 0.467443C31.0014 0.525932 30.6192 0.662107 30.2743 0.868185C29.9294 1.07426 29.6285 1.3462 29.3889 1.66847C29.1493 1.99073 28.9756 2.35699 28.8778 2.74633C28.8481 2.86683 28.8257 2.98902 28.8108 3.11223C28.8043 3.16456 28.7789 3.21274 28.7394 3.24769C28.6998 3.28265 28.6489 3.30198 28.5961 3.30206H28.5498C27.25 3.30172 25.9573 3.49364 24.7137 3.87157C24.6631 3.88742 24.6083 3.88405 24.56 3.86209C24.5116 3.84012 24.4731 3.80112 24.4518 3.75256C24.4019 3.63881 24.3454 3.52812 24.2824 3.42108C23.8656 2.72547 23.1893 2.2237 22.4021 2.02614C21.6149 1.82858 20.7814 1.95142 20.0849 2.36764C19.3884 2.78385 18.886 3.45935 18.6881 4.24553C18.4903 5.03171 18.6133 5.86416 19.0301 6.55977C19.0945 6.66554 19.1652 6.76736 19.2418 6.86469C19.2743 6.90661 19.2903 6.95894 19.2869 7.01183C19.2834 7.06472 19.2608 7.11454 19.2231 7.1519C18.2899 8.07856 17.5008 9.13949 16.8821 10.2994C16.8569 10.3457 16.8157 10.3812 16.7662 10.3993C16.7168 10.4174 16.6623 10.4169 16.6132 10.3978C16.2236 10.248 15.8074 10.1793 15.3903 10.1961C14.9731 10.2128 14.5638 10.3146 14.1875 10.4952C13.8112 10.6758 13.4758 10.9313 13.2021 11.2462C12.9283 11.561 12.722 11.9284 12.5957 12.3258C12.4694 12.7233 12.4258 13.1423 12.4677 13.5572C12.5095 13.972 12.6359 14.3739 12.8391 14.7382C13.0423 15.1025 13.3179 15.4214 13.649 15.6753C13.9802 15.9293 14.3598 16.1129 14.7646 16.2149C14.8852 16.2445 15.0076 16.2665 15.131 16.2808C15.1837 16.2875 15.232 16.3132 15.267 16.353C15.302 16.3929 15.3213 16.4441 15.3211 16.4971C15.3167 17.8118 15.5092 19.1197 15.8923 20.3775C15.9075 20.4281 15.9038 20.4825 15.8819 20.5306C15.86 20.5788 15.8213 20.6173 15.7731 20.6391C15.6593 20.6886 15.5484 20.7447 15.4412 20.8073C14.9218 21.118 14.5062 21.5755 14.2469 22.122C13.9875 22.6684 13.8962 23.2794 13.9843 23.8777C14.0723 24.4759 14.336 25.0347 14.7418 25.4835C15.1477 25.9323 15.6776 26.2509 16.2646 26.3991C16.6535 26.4998 17.0587 26.5222 17.4563 26.465C17.854 26.4077 18.2364 26.272 18.581 26.0657C18.6874 26.0016 18.7897 25.931 18.8873 25.8542C18.9247 25.823 18.9715 25.8053 19.0202 25.804ZM28.5734 22.8375C27.6138 22.8371 26.6669 22.6181 25.8047 22.1973C24.9425 21.7765 24.1877 21.1649 23.5978 20.409C23.0078 19.653 22.5982 18.7727 22.4001 17.835C22.202 16.8972 22.2206 15.9267 22.4545 14.9971C22.744 13.8551 23.3487 12.8171 24.1996 12.0012C25.0506 11.1853 26.1137 10.6243 27.2681 10.382C28.4225 10.1396 29.6218 10.2256 30.7296 10.6303C31.8375 11.0349 32.8094 11.7419 33.5349 12.6709C34.2604 13.5998 34.7103 14.7135 34.8334 15.8851C34.9566 17.0568 34.7481 18.2395 34.2316 19.2987C33.7151 20.3578 32.9114 21.251 31.9118 21.8766C30.9123 22.5022 29.757 22.8351 28.5774 22.8375H28.5734ZM28.5498 10.6673C27.2443 10.6714 25.9773 11.1097 24.949 11.9131C23.9206 12.7164 23.1895 13.8389 22.8711 15.1034C22.6747 15.8524 22.6288 16.6328 22.7361 17.3996C22.8434 18.1664 23.1018 18.9044 23.4963 19.5709C23.8908 20.2374 24.4136 20.8193 25.0345 21.2828C25.6554 21.7464 26.3622 22.0825 27.1139 22.2718C27.8656 22.4611 28.6475 22.4997 29.4142 22.3855C30.181 22.2712 30.9175 22.0064 31.5812 21.6063C32.2449 21.2062 32.8227 20.6787 33.2811 20.0544C33.7396 19.43 34.0696 18.7211 34.2522 17.9686C34.4697 17.1027 34.4867 16.1986 34.3019 15.3252C34.117 14.4517 33.7352 13.6318 33.1854 12.9279C32.6356 12.2239 31.9324 11.6544 31.1291 11.2627C30.3258 10.871 29.4437 10.6674 28.5498 10.6673Z" fill="#000032"/>
<path d="M19.9075 42.1259C19.9782 41.8541 19.9898 41.5702 19.9415 41.2935C19.8933 41.0168 19.7862 40.7536 19.6276 40.5217C19.469 40.2898 19.2625 40.0944 19.0219 39.9488C18.7814 39.8033 18.5125 39.7108 18.2332 39.6777C18.2353 38.8693 18.1168 38.065 17.8816 37.2915C17.9556 37.26 18.0273 37.2235 18.0963 37.1823C18.5406 36.9094 18.8593 36.4727 18.9835 35.9668C19.1077 35.4609 19.0275 34.9265 18.7601 34.4793C18.4927 34.0321 18.0597 33.7081 17.5548 33.5774C17.0499 33.4467 16.5138 33.5198 16.0626 33.781C15.9943 33.8227 15.9285 33.8684 15.8656 33.9177C15.2953 33.3449 14.6427 32.8603 13.9293 32.4797C13.9585 32.4048 13.9832 32.3283 14.0032 32.2505C14.0719 31.9877 14.0858 31.7137 14.0439 31.4453C14.002 31.177 13.9053 30.9201 13.7598 30.6907C13.6143 30.4613 13.4231 30.2642 13.198 30.1118C12.973 29.9593 12.719 29.8547 12.4517 29.8044C12.1845 29.7542 11.9098 29.7594 11.6447 29.8197C11.3795 29.88 11.1297 29.9942 10.9106 30.1551C10.6915 30.3159 10.5079 30.5201 10.3712 30.7549C10.2345 30.9896 10.1476 31.25 10.1159 31.5197C9.30684 31.5161 8.50178 31.6338 7.72765 31.8689C7.69535 31.7953 7.65885 31.7238 7.61833 31.6544C7.48672 31.4273 7.31123 31.2286 7.10205 31.0699C6.89287 30.9111 6.65419 30.7954 6.39986 30.7296C6.14553 30.6638 5.88064 30.6491 5.62058 30.6864C5.36052 30.7237 5.11048 30.8123 4.88499 30.9469C4.6595 31.0816 4.46306 31.2597 4.30709 31.4708C4.15112 31.682 4.03872 31.922 3.97644 32.1769C3.91416 32.4318 3.90323 32.6965 3.94429 32.9557C3.98535 33.2149 4.07758 33.4633 4.21561 33.6866C4.25766 33.7546 4.30336 33.8202 4.35251 33.8833C3.77857 34.4526 3.29352 35.1048 2.91362 35.818C2.83859 35.7889 2.76198 35.7639 2.68415 35.7433C2.17389 35.6152 1.63358 35.6948 1.18209 35.9646C0.730591 36.2343 0.404894 36.6722 0.276643 37.1818C0.148393 37.6914 0.228095 38.231 0.498216 38.682C0.768337 39.1329 1.20675 39.4581 1.71701 39.5862C1.79495 39.6049 1.87386 39.6194 1.95338 39.6295C1.95116 40.4376 2.06966 41.2416 2.30497 42.0148C2.23117 42.047 2.15946 42.0837 2.09027 42.1249C1.63878 42.3943 1.31292 42.8317 1.18437 43.341C1.05582 43.8503 1.13512 44.3898 1.40481 44.8407C1.6745 45.2916 2.1125 45.617 2.62245 45.7454C3.1324 45.8738 3.67253 45.7946 4.12402 45.5253C4.19271 45.4842 4.25852 45.4385 4.32099 45.3885C4.89097 45.9619 5.54361 46.447 6.25724 46.8275C6.22805 46.9024 6.20338 46.9789 6.18338 47.0567C6.10674 47.3128 6.08279 47.5817 6.11297 47.8472C6.14316 48.1127 6.22685 48.3694 6.35901 48.6018C6.49117 48.8341 6.66907 49.0374 6.88197 49.1993C7.09488 49.3611 7.33839 49.4783 7.59784 49.5437C7.85729 49.609 8.12731 49.6213 8.39163 49.5797C8.65594 49.538 8.90909 49.4434 9.13581 49.3015C9.36253 49.1596 9.55814 48.9732 9.71084 48.7538C9.86355 48.5344 9.97019 48.2863 10.0244 48.0246C10.0436 47.9465 10.058 47.8674 10.0677 47.7875C10.8762 47.7906 11.6806 47.6725 12.454 47.4374C12.4863 47.5109 12.5228 47.5825 12.5633 47.6518C12.8333 48.1025 13.2714 48.4276 13.7814 48.5556C14.0339 48.619 14.2964 48.6321 14.554 48.5941C14.8116 48.5562 15.0591 48.4679 15.2826 48.3344C15.506 48.2009 15.7009 48.0248 15.8562 47.8161C16.0114 47.6073 16.124 47.3701 16.1875 47.1179C16.2509 46.8658 16.264 46.6036 16.2261 46.3463C16.1881 46.0891 16.0997 45.8418 15.966 45.6187C15.9244 45.5505 15.8787 45.4848 15.8292 45.422C16.4029 44.8525 16.8879 44.2003 17.268 43.4872C17.343 43.5164 17.4196 43.541 17.4975 43.561C17.7501 43.6251 18.0129 43.6389 18.2708 43.6014C18.5288 43.564 18.7768 43.4761 19.0006 43.3428C19.2245 43.2095 19.4198 43.0334 19.5754 42.8246C19.731 42.6158 19.8439 42.3783 19.9075 42.1259ZM13.6624 40.5521C13.4842 41.2571 13.1008 41.8934 12.5605 42.3808C12.0202 42.8681 11.3474 43.1845 10.6271 43.2899C9.90679 43.3954 9.17136 43.2852 8.51375 42.9733C7.85614 42.6614 7.30588 42.1618 6.93255 41.5376C6.55921 40.9134 6.37955 40.1927 6.41628 39.4666C6.45302 38.7404 6.70449 38.0415 7.13892 37.4581C7.57335 36.8746 8.17122 36.4329 8.85696 36.1888C9.54269 35.9447 10.2855 35.9091 10.9915 36.0866C11.4608 36.2042 11.9023 36.4132 12.2906 36.7014C12.6789 36.9897 13.0065 37.3516 13.2546 37.7665C13.5027 38.1814 13.6664 38.6411 13.7364 39.1193C13.8064 39.5974 13.7813 40.0847 13.6624 40.5531V40.5521Z" fill="white"/>
<path d="M8.10988 49.742C7.77481 49.7424 7.44407 49.6664 7.14287 49.5198C6.84166 49.3732 6.57795 49.1598 6.37182 48.896C6.16569 48.6322 6.02259 48.3248 5.95343 47.9974C5.88427 47.67 5.89086 47.3311 5.97272 47.0066C5.97962 46.983 5.98552 46.9584 5.9934 46.9328C5.37732 46.587 4.80804 46.1639 4.29943 45.6738C4.27777 45.6885 4.2561 45.7013 4.23542 45.7141C3.9875 45.8622 3.7128 45.96 3.427 46.0021C3.14121 46.0441 2.84993 46.0295 2.56979 45.9591C2.28965 45.8886 2.02615 45.7638 1.79434 45.5916C1.56253 45.4195 1.36695 45.2034 1.21877 44.9557C0.920333 44.4553 0.832674 43.8571 0.975001 43.2922C1.11733 42.7273 1.47804 42.2418 1.97811 41.942L2.04508 41.9036C1.85391 41.2238 1.75064 40.5224 1.7378 39.8164C1.71219 39.8105 1.68757 39.8056 1.66295 39.7987C1.24131 39.6921 0.86075 39.4631 0.569293 39.1407C0.277836 38.8183 0.0885517 38.4169 0.025332 37.9871C-0.0378878 37.5573 0.0277911 37.1185 0.214078 36.726C0.400365 36.3335 0.69891 36.0049 1.07203 35.7817C1.3195 35.6326 1.59419 35.5342 1.8801 35.4921C2.16601 35.4501 2.45745 35.4652 2.73744 35.5367L2.8113 35.5564C3.15745 34.9412 3.58038 34.3724 4.06996 33.8636C4.05617 33.842 4.04238 33.8203 4.02958 33.7987C3.87458 33.551 3.77059 33.275 3.7237 32.9867C3.67681 32.6984 3.68796 32.4037 3.75649 32.1198C3.82502 31.8359 3.94957 31.5684 4.12283 31.3332C4.2961 31.0979 4.51461 30.8995 4.76558 30.7496C5.01654 30.5997 5.29493 30.5012 5.58444 30.4601C5.87395 30.4189 6.16878 30.4358 6.45167 30.5098C6.73456 30.5838 6.99983 30.7134 7.23196 30.891C7.4641 31.0687 7.65843 31.2907 7.80359 31.5443C7.81639 31.5659 7.82919 31.5876 7.84101 31.6112C8.52099 31.4202 9.22268 31.317 9.92893 31.3043C9.93484 31.2787 9.93976 31.2541 9.94666 31.2295C10.017 30.9497 10.1418 30.6866 10.314 30.455C10.4862 30.2234 10.7025 30.028 10.9503 29.8799C11.1982 29.7319 11.4728 29.634 11.7586 29.592C12.0443 29.55 12.3356 29.5646 12.6156 29.6351C13.1808 29.7785 13.666 30.1398 13.9651 30.6397C14.2641 31.1397 14.3526 31.7377 14.2111 32.3026C14.2042 32.3272 14.1983 32.3518 14.1904 32.3764C14.8063 32.7226 15.3756 33.1456 15.8844 33.6354L15.9494 33.5951C16.4504 33.2963 17.0497 33.2084 17.6156 33.3509C18.1814 33.4934 18.6673 33.8546 18.9665 34.3549C19.2658 34.8553 19.3537 35.4538 19.211 36.0189C19.0683 36.584 18.7067 37.0694 18.2057 37.3682L18.1398 37.4066C18.3302 38.0865 18.4331 38.7879 18.446 39.4938L18.5209 39.5105C19.0864 39.6537 19.572 40.015 19.8711 40.5153C20.1702 41.0156 20.2584 41.6139 20.1164 42.179C19.9737 42.7435 19.6124 43.2283 19.1119 43.5268C18.6114 43.8252 18.0126 43.9129 17.4474 43.7705L17.3735 43.7498C17.0276 44.3652 16.6047 44.934 16.1149 45.4426C16.1287 45.4653 16.1424 45.4859 16.1553 45.5076C16.454 46.0081 16.5418 46.6065 16.3995 47.1717C16.2572 47.7368 15.8963 48.2225 15.3959 48.5223C14.8951 48.8207 14.2962 48.9084 13.7307 48.766C13.1653 48.6236 12.6795 48.2628 12.3803 47.763C12.3675 47.7413 12.3556 47.7187 12.3428 47.6961C11.6627 47.8865 10.9611 47.9896 10.2549 48.003C10.25 48.0285 10.2441 48.0531 10.2372 48.0777C10.118 48.5514 9.84419 48.972 9.45892 49.2729C9.07365 49.5737 8.59895 49.7378 8.10988 49.739V49.742ZM4.32209 45.1751C4.35065 45.1751 4.37893 45.1808 4.4053 45.1917C4.43166 45.2027 4.4556 45.2188 4.47573 45.239C5.02985 45.7976 5.66497 46.2698 6.35977 46.6397C6.40608 46.6648 6.44163 46.706 6.45976 46.7554C6.47789 46.8048 6.47736 46.8591 6.45826 46.9082C6.43235 46.9752 6.40999 47.0435 6.39129 47.1128C6.27837 47.5664 6.3496 48.0461 6.58944 48.4474C6.82929 48.8488 7.21829 49.1391 7.67162 49.2551C7.91406 49.3173 8.16702 49.3269 8.41352 49.2835C8.66002 49.24 8.89438 49.1445 9.10087 49.0032C9.30736 48.8619 9.48122 48.6781 9.61078 48.4642C9.74035 48.2503 9.82263 48.0112 9.85211 47.763C9.85883 47.7106 9.88446 47.6626 9.92418 47.6278C9.9639 47.593 10.015 47.5739 10.0678 47.5741C10.0678 47.5741 10.0875 47.5741 10.0973 47.5741C10.8746 47.5741 11.6476 47.4591 12.3911 47.2328C12.4416 47.2177 12.496 47.2214 12.544 47.2433C12.592 47.2652 12.6304 47.3037 12.6521 47.3518C12.6814 47.4175 12.7142 47.4815 12.7506 47.5436C12.8661 47.7488 13.0216 47.9287 13.2078 48.0729C13.3941 48.2171 13.6074 48.3226 13.8351 48.3832C14.0628 48.4438 14.3004 48.4583 14.5338 48.4257C14.7672 48.3932 14.9917 48.3143 15.1941 48.1938C15.3965 48.0733 15.5727 47.9135 15.7123 47.7239C15.8519 47.5343 15.9521 47.3186 16.007 47.0898C16.0619 46.8609 16.0703 46.6233 16.0319 46.3911C15.9934 46.1589 15.9088 45.9367 15.783 45.7377C15.7457 45.6767 15.7049 45.618 15.6608 45.5617C15.6285 45.5199 15.6125 45.4679 15.6157 45.4152C15.619 45.3625 15.6413 45.3129 15.6786 45.2754C16.2374 44.721 16.7098 44.0861 17.08 43.3918C17.1054 43.3455 17.1468 43.31 17.1964 43.2919C17.2461 43.2738 17.3006 43.2743 17.3499 43.2935C17.4164 43.3201 17.4844 43.3424 17.5538 43.3603C18.0086 43.4747 18.4904 43.404 18.893 43.1636C19.2957 42.9233 19.5862 42.533 19.7008 42.0787C19.8153 41.6244 19.7444 41.1433 19.5038 40.7411C19.2631 40.339 18.8724 40.0488 18.4175 39.9344C18.3479 39.9168 18.2771 39.904 18.2057 39.8961C18.1531 39.8894 18.1047 39.8637 18.0697 39.8238C18.0347 39.784 18.0155 39.7327 18.0157 39.6797C18.0187 38.8932 17.9035 38.1107 17.6739 37.3584C17.6587 37.3077 17.6624 37.2533 17.6843 37.2052C17.7062 37.1571 17.7449 37.1186 17.7931 37.0967C17.8608 37.0682 17.9266 37.0353 17.9901 36.9984C18.1943 36.8822 18.3733 36.7264 18.5166 36.5403C18.6598 36.3541 18.7644 36.1413 18.8243 35.9142C18.8841 35.6872 18.898 35.4505 18.8651 35.2181C18.8322 34.9856 18.7531 34.762 18.6326 34.5604C18.5121 34.3589 18.3525 34.1833 18.1632 34.0441C17.9739 33.9049 17.7587 33.8048 17.5302 33.7497C17.3017 33.6946 17.0645 33.6856 16.8324 33.7233C16.6004 33.7609 16.3782 33.8444 16.1789 33.9689C16.1178 34.0061 16.059 34.0468 16.0026 34.0908C15.9608 34.1236 15.9085 34.1399 15.8554 34.1366C15.8024 34.1334 15.7524 34.1108 15.715 34.0731C15.1609 33.5145 14.5258 33.0423 13.831 32.6725C13.7846 32.6472 13.749 32.6058 13.7309 32.5562C13.7128 32.5067 13.7133 32.4522 13.7325 32.403C13.759 32.3365 13.7813 32.2685 13.7995 32.1994C13.9124 31.7458 13.8411 31.266 13.6013 30.8647C13.3615 30.4634 12.9724 30.1731 12.5191 30.0571C12.0653 29.943 11.5847 30.0136 11.183 30.2534C10.7813 30.4932 10.4914 30.8825 10.377 31.3357C10.3597 31.4053 10.3469 31.476 10.3386 31.5472C10.3319 31.5996 10.3063 31.6478 10.2666 31.6828C10.2269 31.7177 10.1759 31.737 10.1229 31.7371H10.0964C9.31808 31.7365 8.54404 31.8515 7.79965 32.0784C7.74884 32.0937 7.69417 32.09 7.64592 32.0679C7.59768 32.0458 7.55918 32.0068 7.53767 31.9584C7.50906 31.8927 7.47616 31.8289 7.43919 31.7676C7.32288 31.5635 7.16696 31.3848 6.98056 31.2417C6.79416 31.0987 6.58105 30.9942 6.3537 30.9345C6.12636 30.8748 5.88937 30.861 5.65663 30.894C5.42389 30.927 5.20008 31.006 4.99833 31.1265C4.79658 31.247 4.62095 31.4065 4.48173 31.5957C4.34251 31.7849 4.24252 31.9999 4.18761 32.2282C4.13269 32.4564 4.12397 32.6934 4.16194 32.925C4.19992 33.1567 4.28383 33.3785 4.40875 33.5774C4.44583 33.6391 4.48695 33.6982 4.53186 33.7544C4.56387 33.7964 4.5796 33.8484 4.57616 33.9011C4.57272 33.9537 4.55034 34.0033 4.51315 34.0407C3.95455 34.5949 3.48217 35.2294 3.11169 35.9233C3.08652 35.9695 3.04533 36.005 2.99584 36.0232C2.94635 36.0413 2.89194 36.0407 2.84282 36.0217C2.77613 35.9947 2.70769 35.9724 2.63797 35.9548C2.18334 35.8402 1.70179 35.9108 1.29924 36.1509C0.896688 36.3909 0.606118 36.7809 0.49145 37.2349C0.376782 37.689 0.447409 38.1699 0.687794 38.5719C0.928179 38.974 1.31863 39.2642 1.77325 39.3787C1.84263 39.3959 1.91302 39.4087 1.98401 39.4171C2.03524 39.4253 2.08185 39.4515 2.11544 39.491C2.14903 39.5305 2.16739 39.5807 2.1672 39.6325C2.16422 40.4193 2.27942 41.2021 2.50895 41.9548C2.52431 42.0055 2.52057 42.0601 2.49844 42.1083C2.47632 42.1565 2.43732 42.1949 2.38879 42.2164C2.32331 42.2456 2.25952 42.2784 2.19773 42.3148C1.79678 42.5562 1.50774 42.9463 1.39371 43.3998C1.27967 43.8533 1.34991 44.3334 1.58908 44.7354C1.70779 44.9346 1.86473 45.1085 2.05088 45.247C2.23703 45.3855 2.44873 45.4859 2.67384 45.5424C2.89895 45.599 3.13302 45.6106 3.36263 45.5766C3.59225 45.5426 3.81287 45.4637 4.01185 45.3443C4.07345 45.3074 4.13266 45.2666 4.18913 45.2223C4.22686 45.1921 4.27371 45.1754 4.32209 45.1751ZM10.0993 43.5521C9.50553 43.5524 8.91951 43.4174 8.38588 43.1573C7.85224 42.8972 7.38506 42.519 7.01988 42.0514C6.65471 41.5838 6.40119 41.0391 6.2786 40.4588C6.15602 39.8786 6.16761 39.2781 6.3125 38.703C6.49181 37.9971 6.86582 37.3556 7.39202 36.8514C7.91822 36.3472 8.5755 36.0006 9.28913 35.851C10.0028 35.7013 10.7441 35.7546 11.4289 36.0048C12.1137 36.2551 12.7145 36.6921 13.163 37.2664C13.6114 37.8407 13.8895 38.5291 13.9657 39.2533C14.0419 39.9776 13.9131 40.7087 13.594 41.3635C13.2748 42.0183 12.7781 42.5706 12.1604 42.9575C11.5426 43.3444 10.8285 43.5504 10.0993 43.5521ZM10.0855 36.1908C9.43594 36.1911 8.7995 36.3736 8.24866 36.7174C7.69782 37.0613 7.25472 37.5527 6.96983 38.1357C6.68493 38.7187 6.56968 39.3699 6.6372 40.0152C6.70472 40.6604 6.9523 41.2738 7.35174 41.7854C7.75118 42.2969 8.28644 42.6862 8.89656 42.9089C9.50668 43.1316 10.1671 43.1787 10.8028 43.0448C11.4384 42.911 12.0236 42.6016 12.4917 42.1518C12.9599 41.7021 13.2922 41.1301 13.4508 40.501C13.5793 39.9899 13.5894 39.4563 13.4803 38.9407C13.3713 38.4251 13.146 37.9411 12.8215 37.5256C12.497 37.11 12.082 36.7738 11.6079 36.5426C11.1338 36.3113 10.6132 36.191 10.0855 36.1908Z" fill="#000032"/>
<path d="M30.2239 73.7313H10.3729C10.3155 73.731 10.2606 73.7081 10.22 73.6676C10.1794 73.6271 10.1565 73.5722 10.1562 73.5149V52.9457C10.16 52.8907 10.1845 52.8392 10.2248 52.8015C10.2651 52.7639 10.3182 52.7429 10.3734 52.7429C10.4286 52.7429 10.4817 52.7639 10.5221 52.8015C10.5624 52.8392 10.5869 52.8907 10.5906 52.9457V73.2975H30.2239C30.2536 73.2955 30.2835 73.2996 30.3116 73.3096C30.3396 73.3196 30.3654 73.3352 30.3872 73.3556C30.4089 73.3759 30.4263 73.4005 30.4382 73.4278C30.45 73.4551 30.4562 73.4846 30.4562 73.5144C30.4562 73.5442 30.45 73.5736 30.4382 73.6009C30.4263 73.6282 30.4089 73.6528 30.3872 73.6732C30.3654 73.6935 30.3396 73.7091 30.3116 73.7191C30.2835 73.7291 30.2536 73.7333 30.2239 73.7313Z" fill="#000032"/>
<path d="M147.75 101.516C147.747 102.062 147.861 102.602 148.085 103.101C148.308 103.599 148.635 104.044 149.044 104.406C149.453 104.768 149.935 105.039 150.457 105.2C150.98 105.361 151.53 105.409 152.073 105.34C152.451 106.867 153.057 108.328 153.869 109.675C153.435 110.01 153.078 110.433 152.82 110.916C152.563 111.399 152.411 111.932 152.376 112.478C152.341 113.024 152.422 113.572 152.615 114.084C152.809 114.596 153.109 115.062 153.496 115.449C153.883 115.836 154.349 116.137 154.862 116.331C155.374 116.524 155.922 116.607 156.469 116.572C157.016 116.538 157.55 116.387 158.034 116.131C158.518 115.874 158.942 115.518 159.278 115.085C160.624 115.897 162.085 116.502 163.611 116.881C163.549 117.402 163.593 117.93 163.742 118.433C163.891 118.936 164.142 119.403 164.478 119.806C164.814 120.209 165.23 120.539 165.698 120.776C166.167 121.013 166.679 121.151 167.204 121.183C167.728 121.215 168.253 121.14 168.747 120.962C169.241 120.784 169.694 120.507 170.077 120.148C170.46 119.788 170.765 119.355 170.974 118.874C171.184 118.393 171.292 117.874 171.293 117.349C171.292 117.193 171.282 117.036 171.263 116.881C172.789 116.502 174.25 115.897 175.596 115.085C175.92 115.5 176.326 115.845 176.788 116.097C177.25 116.349 177.76 116.505 178.284 116.553C178.809 116.601 179.338 116.541 179.839 116.378C180.34 116.214 180.802 115.949 181.196 115.6C181.59 115.251 181.909 114.825 182.132 114.348C182.355 113.871 182.478 113.354 182.493 112.828C182.508 112.302 182.415 111.778 182.22 111.29C182.025 110.801 181.731 110.357 181.358 109.986C181.246 109.876 181.129 109.773 181.005 109.677C181.817 108.331 182.423 106.87 182.802 105.344C183.346 105.414 183.899 105.367 184.424 105.207C184.948 105.047 185.433 104.777 185.845 104.415C186.257 104.053 186.586 103.608 186.812 103.109C187.038 102.61 187.155 102.068 187.155 101.52C187.155 100.972 187.038 100.431 186.812 99.9315C186.586 99.4323 186.257 98.9869 185.845 98.6251C185.433 98.2632 184.948 97.9932 184.424 97.8329C183.899 97.6727 183.346 97.626 182.802 97.6958C182.424 96.1692 181.819 94.7078 181.007 93.3601C181.13 93.2645 181.248 93.1617 181.36 93.0522C182.084 92.3301 182.491 91.3504 182.491 90.3286C182.492 89.3068 182.086 88.3265 181.363 87.6035C180.64 86.8805 179.659 86.474 178.636 86.4733C177.613 86.4727 176.631 86.878 175.907 87.6001C175.797 87.7113 175.694 87.8289 175.598 87.9522C174.252 87.1408 172.791 86.5357 171.265 86.1571C171.284 86.0018 171.294 85.8455 171.295 85.6889C171.296 85.1628 171.189 84.6421 170.981 84.1589C170.773 83.6757 170.468 83.2402 170.084 82.8793C169.701 82.5185 169.248 82.2399 168.752 82.0607C168.257 81.8816 167.73 81.8057 167.205 81.8377C166.679 81.8698 166.165 82.0091 165.695 82.247C165.226 82.485 164.81 82.8166 164.473 83.2213C164.137 83.6261 163.887 84.0954 163.739 84.6003C163.591 85.1052 163.548 85.6351 163.613 86.1571C162.087 86.5355 160.626 87.1406 159.28 87.9522C159.184 87.8289 159.081 87.7113 158.971 87.6001C158.599 87.2254 158.154 86.931 157.664 86.735C157.174 86.5389 156.649 86.4455 156.121 86.4605C155.593 86.4754 155.074 86.5984 154.595 86.8219C154.117 87.0454 153.69 87.3645 153.34 87.7596C152.99 88.1547 152.726 88.6172 152.562 89.1187C152.399 89.6201 152.34 90.1498 152.39 90.6748C152.439 91.1998 152.597 91.709 152.851 92.1709C153.106 92.6328 153.453 93.0376 153.871 93.3601C153.059 94.7077 152.453 96.1692 152.075 97.6958C151.532 97.6259 150.981 97.6728 150.458 97.8333C149.935 97.9939 149.452 98.2644 149.043 98.6267C148.633 98.989 148.306 99.4347 148.084 99.9338C147.861 100.433 147.748 100.974 147.752 101.52L147.75 101.516ZM160.278 101.516C160.279 100.102 160.7 98.72 161.488 97.5449C162.276 96.3698 163.395 95.4543 164.704 94.9143C166.012 94.3742 167.452 94.2337 168.841 94.5107C170.229 94.7876 171.505 95.4695 172.505 96.4701C173.506 97.4707 174.187 98.7451 174.463 100.132C174.738 101.519 174.596 102.957 174.053 104.263C173.511 105.57 172.593 106.686 171.415 107.472C170.238 108.257 168.854 108.676 167.438 108.676C165.537 108.675 163.716 107.919 162.373 106.577C161.03 105.234 160.277 103.414 160.278 101.516Z" fill="white"/>
<path d="M153.218 92.9333C153.186 92.9336 153.153 92.9266 153.124 92.9126C153.094 92.8986 153.068 92.8781 153.048 92.8527C152.912 92.6836 152.791 92.5036 152.685 92.3146C152.251 91.5441 152.08 90.653 152.199 89.7767C152.318 88.9003 152.72 88.0868 153.344 87.4596H153.352L153.357 87.4537C153.999 86.808 154.84 86.3979 155.744 86.2901C155.908 86.2708 156.072 86.2609 156.237 86.2605C156.772 86.2573 157.302 86.3602 157.797 86.5631C158.292 86.7661 158.742 87.0651 159.12 87.4428C159.188 87.5107 159.256 87.5855 159.326 87.6671C160.593 86.9237 161.956 86.359 163.377 85.9891C163.368 85.8818 163.363 85.7815 163.363 85.6851C163.363 84.6064 163.792 83.5719 164.556 82.8092C165.32 82.0464 166.356 81.6179 167.436 81.6179C168.516 81.6179 169.552 82.0464 170.315 82.8092C171.079 83.5719 171.508 84.6064 171.508 85.6851C171.508 85.7835 171.508 85.8818 171.495 85.9891C172.917 86.359 174.28 86.9237 175.546 87.6671C175.615 87.5855 175.683 87.5107 175.752 87.4428C176.477 86.7148 177.451 86.2876 178.478 86.2469C179.506 86.2061 180.51 86.5549 181.291 87.2232C182.072 87.8916 182.57 88.83 182.687 89.8502C182.804 90.8704 182.53 91.8969 181.92 92.7238C181.893 92.7617 181.855 92.79 181.811 92.8047C181.767 92.8194 181.72 92.8195 181.676 92.8052C181.632 92.7909 181.593 92.7629 181.567 92.7252C181.54 92.6875 181.525 92.6422 181.526 92.596C181.526 92.5499 181.541 92.5051 181.569 92.4681C182.106 91.7281 182.345 90.8132 182.238 89.9053C182.13 88.9975 181.685 88.1632 180.99 87.5683C180.295 86.9734 179.401 86.6614 178.487 86.6945C177.572 86.7276 176.703 87.1032 176.053 87.7468C175.948 87.8522 175.85 87.9635 175.758 88.0802C175.725 88.1219 175.678 88.1502 175.626 88.1598C175.574 88.1694 175.521 88.1597 175.475 88.1323C174.147 87.3315 172.705 86.7347 171.199 86.3619C171.152 86.35 171.11 86.3229 171.08 86.2848C171.051 86.2467 171.034 86.1997 171.034 86.1514C171.034 86.1425 171.034 86.1336 171.034 86.1248C171.053 85.9783 171.063 85.8308 171.064 85.6832C171.072 85.2009 170.984 84.7219 170.804 84.2741C170.625 83.8262 170.358 83.4185 170.02 83.0747C169.681 82.7308 169.277 82.4578 168.832 82.2714C168.386 82.085 167.908 81.989 167.425 81.989C166.942 81.989 166.464 82.085 166.019 82.2714C165.574 82.4578 165.17 82.7308 164.831 83.0747C164.492 83.4185 164.226 83.8262 164.046 84.2741C163.867 84.7219 163.779 85.2009 163.787 85.6832C163.788 85.8308 163.798 85.9783 163.816 86.1248C163.817 86.1336 163.817 86.1425 163.816 86.1514C163.816 86.1997 163.8 86.2467 163.77 86.2848C163.74 86.3229 163.699 86.35 163.652 86.3619C162.146 86.7347 160.705 87.3315 159.377 88.1323C159.331 88.1597 159.277 88.1695 159.225 88.1599C159.173 88.1503 159.126 88.122 159.093 88.0802C159.001 87.9633 158.903 87.8519 158.797 87.7468C158.46 87.4091 158.059 87.1413 157.617 86.9585C157.176 86.7758 156.702 86.6817 156.224 86.6817C155.747 86.6817 155.273 86.7758 154.832 86.9585C154.39 87.1413 153.989 87.4091 153.652 87.7468V87.7527C153.096 88.3136 152.738 89.0396 152.631 89.8215C152.525 90.6033 152.675 91.3986 153.061 92.0874C153.126 92.2037 153.198 92.3167 153.275 92.4258L153.28 92.4317C153.315 92.4789 153.35 92.5301 153.387 92.5723C153.412 92.6044 153.427 92.6428 153.431 92.6832C153.436 92.7236 153.429 92.7644 153.411 92.8009C153.393 92.8375 153.366 92.8683 153.331 92.89C153.297 92.9117 153.257 92.9233 153.216 92.9235L153.218 92.9333Z" fill="#000032"/>
<path d="M143.603 41.2988H89.332V79.091H143.603V41.2988Z" fill="#FFECE3"/>
<path d="M94.8775 73.2788C94.8181 73.279 94.7598 73.2627 94.7091 73.2316C94.6354 73.1868 94.5826 73.1146 94.5621 73.0309C94.5416 72.9472 94.5551 72.8588 94.5998 72.785L107.994 50.7975C108.022 50.751 108.062 50.7123 108.109 50.685C108.156 50.6576 108.209 50.6426 108.264 50.6411C108.318 50.639 108.373 50.6511 108.421 50.676C108.47 50.701 108.511 50.7381 108.542 50.7837L123.469 72.7713C123.518 72.8426 123.536 72.9303 123.519 73.0149C123.503 73.0996 123.454 73.1744 123.383 73.2227C123.311 73.2711 123.223 73.2892 123.139 73.273C123.054 73.2567 122.979 73.2075 122.93 73.1362L108.283 51.5686L95.1563 73.1244C95.1271 73.1719 95.0861 73.2111 95.0372 73.2382C94.9884 73.2652 94.9334 73.2792 94.8775 73.2788Z" fill="white"/>
<path d="M137.907 73.2787C137.858 73.2788 137.81 73.2678 137.766 73.2465C137.722 73.2252 137.683 73.1942 137.652 73.1557L122.452 54.0059L117.762 60.601C117.737 60.6357 117.706 60.6653 117.67 60.6879C117.633 60.7105 117.593 60.7258 117.551 60.7329C117.509 60.74 117.466 60.7387 117.424 60.7292C117.383 60.7196 117.343 60.7019 117.308 60.6772C117.274 60.6525 117.244 60.6211 117.221 60.585C117.199 60.5488 117.183 60.5086 117.176 60.4665C117.169 60.4245 117.171 60.3814 117.18 60.3399C117.19 60.2983 117.207 60.259 117.232 60.2243L122.172 53.277C122.201 53.2358 122.239 53.2019 122.284 53.1781C122.328 53.1544 122.378 53.1414 122.428 53.1403C122.479 53.1363 122.53 53.1455 122.576 53.1671C122.623 53.1886 122.663 53.2218 122.692 53.2633L138.162 72.7544C138.2 72.8021 138.224 72.8596 138.231 72.9204C138.238 72.9811 138.227 73.0426 138.201 73.0976C138.174 73.1527 138.133 73.1991 138.081 73.2315C138.029 73.2639 137.969 73.2809 137.907 73.2807V73.2787Z" fill="white"/>
<path d="M132.898 53.7581C132.239 53.7589 131.595 53.5645 131.047 53.1995C130.499 52.8345 130.072 52.3153 129.819 51.7077C129.566 51.1 129.5 50.4312 129.628 49.7858C129.756 49.1404 130.073 48.5475 130.539 48.082C131.004 47.6166 131.598 47.2995 132.244 47.171C132.89 47.0425 133.56 47.1082 134.168 47.36C134.777 47.6117 135.297 48.0381 135.663 48.5852C136.029 49.1323 136.224 49.7755 136.224 50.4335C136.224 51.3146 135.873 52.1594 135.25 52.7827C134.626 53.406 133.78 53.7568 132.898 53.7581ZM132.898 47.7581C132.368 47.7573 131.85 47.9136 131.409 48.2071C130.968 48.5006 130.624 48.9181 130.42 49.4069C130.217 49.8957 130.164 50.4338 130.266 50.953C130.369 51.4723 130.624 51.9493 130.999 52.3239C131.373 52.6985 131.85 52.9536 132.37 53.0572C132.89 53.1607 133.429 53.108 133.919 52.9056C134.408 52.7032 134.827 52.3603 135.121 51.9203C135.416 51.4802 135.573 50.9628 135.573 50.4335C135.573 49.7248 135.291 49.0452 134.789 48.5437C134.288 48.0421 133.608 47.7596 132.898 47.7581Z" fill="white"/>
<path d="M110.628 69.0355C110.478 69.0353 110.327 69.0238 110.178 69.0011C108.777 68.7827 107.716 67.5739 106.942 66.542C106.831 66.3945 106.721 66.247 106.611 66.0945C105.943 65.1857 105.253 64.2453 104.346 63.7339C104.067 63.5778 103.76 63.4787 103.443 63.4422C103.126 63.4058 102.804 63.4327 102.497 63.5214C102.278 63.5874 102.075 63.6985 101.901 63.8476C101.728 63.9966 101.587 64.1804 101.489 64.387C101.471 64.4257 101.445 64.4605 101.413 64.4894C101.382 64.5182 101.345 64.5406 101.305 64.5551C101.264 64.5697 101.221 64.5762 101.179 64.5743C101.136 64.5723 101.094 64.562 101.055 64.5439C101.016 64.5257 100.981 64.5001 100.953 64.4685C100.924 64.4369 100.901 64.3999 100.887 64.3597C100.872 64.3195 100.866 64.2768 100.868 64.234C100.869 64.1913 100.88 64.1493 100.898 64.1106C101.033 63.8222 101.228 63.5656 101.469 63.3575C101.71 63.1493 101.992 62.9944 102.297 62.9027C102.689 62.7854 103.1 62.7485 103.507 62.7941C103.913 62.8398 104.306 62.967 104.661 63.1683C105.688 63.7466 106.42 64.742 107.123 65.708C107.233 65.8565 107.341 66.003 107.451 66.1506C108.148 67.0811 109.098 68.1719 110.267 68.3538C111.189 68.4984 112.252 68.0322 113.105 67.1096C113.915 66.2352 114.476 65.0932 115.019 63.9896C115.057 63.9122 115.124 63.8531 115.206 63.8253C115.287 63.7974 115.377 63.8031 115.454 63.8411C115.532 63.879 115.591 63.9461 115.619 64.0277C115.647 64.1092 115.641 64.1985 115.603 64.2758C115.04 65.4217 114.457 66.607 113.583 67.5512C112.709 68.4955 111.651 69.0355 110.628 69.0355Z" fill="white"/>
<path d="M17.9609 175.922C17.8644 176.389 17.8732 176.872 17.9869 177.336C18.1005 177.799 18.316 178.231 18.6178 178.601C18.9196 178.971 19.3001 179.269 19.7316 179.473C20.1631 179.678 20.6348 179.784 21.1125 179.784H41.7178C41.9376 179.785 42.1534 179.724 42.3408 179.61C42.5282 179.495 42.6798 179.33 42.7786 179.134C42.8775 178.938 42.9196 178.718 42.9003 178.5C42.8809 178.281 42.8009 178.072 42.6692 177.896L40.3439 174.757C35.912 170.269 26.7912 172.487 18.2997 174.276L17.9609 175.922Z" fill="white"/>
<path d="M41.7181 180H21.1088C20.5993 180 20.0962 179.886 19.6361 179.667C19.176 179.449 18.7704 179.13 18.4487 178.736C18.127 178.341 17.8973 177.88 17.7762 177.386C17.655 176.891 17.6456 176.376 17.7485 175.878L18.0872 174.231C18.096 174.19 18.1166 174.152 18.1465 174.122C18.1764 174.092 18.2143 174.072 18.2557 174.063L19.5163 173.797C27.7192 172.055 36.1999 170.256 40.4939 174.604C40.5016 174.611 40.5085 174.619 40.5146 174.628L42.8419 177.767C42.9963 177.976 43.0899 178.223 43.112 178.481C43.1342 178.739 43.0841 178.998 42.9674 179.23C42.8507 179.461 42.6719 179.656 42.451 179.792C42.2301 179.928 41.9757 180 41.7162 180H41.7181ZM18.1739 175.967C18.0841 176.403 18.0923 176.853 18.1981 177.284C18.3039 177.716 18.5045 178.119 18.7854 178.464C19.0664 178.809 19.4206 179.087 19.8225 179.278C20.2243 179.469 20.6637 179.569 21.1088 179.569H41.7181C41.8973 179.569 42.073 179.519 42.2255 179.425C42.378 179.331 42.5014 179.197 42.582 179.037C42.6625 178.877 42.6971 178.698 42.6817 178.52C42.6664 178.341 42.6018 178.171 42.4952 178.027L40.1827 174.897C36.0463 170.731 27.6917 172.504 19.6108 174.22L18.4881 174.457L18.1739 175.967Z" fill="#000032"/>
<path d="M79.6129 174.757C73.7648 168.966 58.7751 169.794 57.0723 174.757L57.4771 176.747C57.6506 177.604 58.1155 178.374 58.7927 178.928C59.4699 179.481 60.3179 179.783 61.1929 179.784H81.884C82.0839 179.784 82.2794 179.725 82.4467 179.616C82.614 179.507 82.7459 179.351 82.8263 179.169C82.9067 178.986 82.9321 178.784 82.8994 178.587C82.8668 178.39 82.7774 178.207 82.6423 178.059L79.6129 174.757Z" fill="white"/>
<path d="M81.8823 180H61.1913C60.2668 179.997 59.3716 179.676 58.6562 179.091C57.9407 178.507 57.4486 177.694 57.2627 176.79L56.8579 174.8C56.8503 174.762 56.8526 174.722 56.8648 174.686C57.433 173.032 59.4018 171.735 62.4096 171.033C67.8785 169.754 75.8648 170.737 79.7639 174.602L79.7708 174.61L82.8002 177.913C82.9638 178.091 83.0721 178.313 83.1116 178.551C83.1512 178.789 83.1205 179.034 83.0232 179.256C82.9259 179.477 82.7662 179.665 82.5636 179.797C82.361 179.929 82.1243 180 81.8823 180ZM57.2952 174.772L57.6891 176.704C57.8551 177.511 58.2941 178.235 58.9322 178.757C59.5704 179.278 60.3688 179.564 61.1933 179.567H81.8823C82.0401 179.567 82.1944 179.521 82.3265 179.435C82.4586 179.349 82.5627 179.226 82.6261 179.082C82.6896 178.937 82.7097 178.778 82.6839 178.622C82.6582 178.467 82.5877 178.322 82.4811 178.206L79.4546 174.906C75.6609 171.154 67.8598 170.205 62.509 171.454C59.6825 172.113 57.8378 173.29 57.2952 174.772Z" fill="#000032"/>
<path d="M60.5912 82.7834H35.2861C32.074 87.188 29.9537 92.2906 29.0991 97.6723L17.2079 172.623C17.1508 172.88 17.1521 173.145 17.2117 173.401C17.2712 173.657 17.3875 173.896 17.552 174.101C17.7165 174.306 17.9249 174.472 18.1619 174.585C18.399 174.699 18.6585 174.758 18.9215 174.759H39.5919C40.2464 174.758 40.877 174.513 41.3595 174.071C41.842 173.63 42.1415 173.023 42.1988 172.372L46.5608 123.08L55.135 172.776C55.2304 173.33 55.519 173.833 55.9496 174.196C56.3803 174.559 56.9254 174.758 57.4889 174.759H79.0574C79.3217 174.758 79.5826 174.699 79.8207 174.584C80.0588 174.47 80.2681 174.303 80.4332 174.097C80.5982 173.891 80.7147 173.65 80.774 173.393C80.8334 173.136 80.834 172.869 80.776 172.611L60.5912 82.7834Z" fill="white"/>
<path d="M79.0586 174.973H57.49C56.875 174.974 56.2796 174.757 55.8095 174.36C55.3395 173.964 55.0252 173.415 54.9225 172.809L46.6319 124.755L42.4196 172.39C42.361 173.097 42.0373 173.756 41.5133 174.235C40.9892 174.714 40.3034 174.977 39.593 174.973H18.9227C18.627 174.973 18.3349 174.907 18.0682 174.78C17.8015 174.652 17.567 174.466 17.382 174.236C17.1971 174.006 17.0664 173.736 16.9998 173.449C16.9332 173.161 16.9323 172.862 16.9973 172.574L28.8866 97.6387C29.7516 92.2244 31.8846 87.0907 35.1119 82.6554C35.132 82.6279 35.1584 82.6055 35.1889 82.5901C35.2193 82.5747 35.253 82.5667 35.2872 82.5669H60.5923C60.6416 82.5667 60.6894 82.5834 60.7277 82.6142C60.7661 82.645 60.7927 82.688 60.8031 82.7361L80.9929 172.562C81.0582 172.851 81.0575 173.151 80.9909 173.44C80.9243 173.729 80.7934 173.999 80.608 174.231C80.4226 174.462 80.1875 174.649 79.9199 174.778C79.6524 174.906 79.3594 174.973 79.0625 174.973H79.0586ZM46.5669 122.861C46.6179 122.862 46.6672 122.88 46.7061 122.913C46.745 122.946 46.771 122.991 46.7796 123.041L55.3509 172.737C55.4364 173.242 55.6984 173.7 56.0902 174.03C56.482 174.36 56.9784 174.541 57.491 174.54H79.0596C79.2914 174.54 79.5201 174.487 79.729 174.387C79.9378 174.287 80.1213 174.141 80.266 173.96C80.4107 173.779 80.5128 173.568 80.5648 173.342C80.6168 173.117 80.6174 172.882 80.5664 172.656L60.418 82.9997H35.3975C32.2466 87.3596 30.1633 92.3968 29.315 97.7066L17.4227 172.657C17.3708 172.884 17.3708 173.12 17.4228 173.347C17.4748 173.574 17.5775 173.786 17.7231 173.968C17.8667 174.148 18.0492 174.293 18.2569 174.392C18.4647 174.492 18.6922 174.543 18.9227 174.543H39.593C40.1941 174.545 40.774 174.322 41.2171 173.916C41.6601 173.51 41.9337 172.953 41.9833 172.354L46.3463 123.062C46.3512 123.01 46.3748 122.961 46.4128 122.925C46.4508 122.889 46.5007 122.868 46.5531 122.865L46.5669 122.861Z" fill="#000032"/>
<path d="M46.5641 122.355C46.5128 122.355 46.4633 122.336 46.4242 122.303C46.3851 122.27 46.3589 122.224 46.3503 122.174L44.161 109.251C43.9886 108.858 42.2031 104.756 42.1066 103.794C42.1037 103.766 42.1065 103.737 42.1147 103.71C42.1229 103.683 42.1364 103.658 42.1544 103.636C42.1724 103.614 42.1946 103.595 42.2197 103.582C42.2448 103.568 42.2722 103.56 42.3006 103.557C42.3289 103.554 42.3575 103.557 42.3848 103.565C42.412 103.574 42.4374 103.587 42.4594 103.605C42.4815 103.623 42.4997 103.645 42.5132 103.67C42.5267 103.695 42.5351 103.723 42.5379 103.751C42.6147 104.516 44.03 107.873 44.5687 109.102C44.5763 109.118 44.5816 109.135 44.5845 109.153L46.7807 122.102C46.786 122.133 46.7845 122.165 46.7761 122.196C46.7678 122.226 46.7528 122.254 46.7324 122.279C46.7119 122.303 46.6864 122.322 46.6577 122.335C46.6289 122.348 46.5977 122.355 46.566 122.355H46.5641Z" fill="#000032"/>
<path d="M36.7536 61.7951C37.0895 60.7063 39.8067 57.2794 40.4833 56.3647C42.0473 54.2568 48.2746 55.1322 50.8845 54.842C54.1621 54.4771 60.8415 53.3292 65.1581 55.9388C69.3822 58.4912 70.9561 63.726 72.975 66.5086C74.9635 65.1227 76.5619 63.8981 78.64 62.3538L85.5951 69.9935C85.2218 70.446 78.0008 81.0669 71.4465 80.3214C67.6302 79.8876 66.4897 77.764 64.0384 75.2066C64.0384 75.2066 63.9852 85.8542 60.5746 84.7889C46.5097 80.3981 38.8347 87.6807 32.6526 85.5512C31.1547 85.0397 35.7963 64.8886 36.7536 61.7951Z" fill="#FF4E00"/>
<path d="M63.9855 75.3207C63.9482 75.3208 63.9115 75.3113 63.879 75.293C63.8466 75.2747 63.8194 75.2483 63.8003 75.2164C62.7918 73.5551 60.9334 70.0466 59.9436 67.1892C59.9343 67.1623 59.9303 67.1339 59.932 67.1055C59.9337 67.0771 59.941 67.0493 59.9534 67.0238C59.9659 66.9982 59.9832 66.9753 60.0045 66.9564C60.0258 66.9376 60.0506 66.9231 60.0775 66.9138C60.1044 66.9045 60.1329 66.9005 60.1613 66.9022C60.1897 66.9039 60.2175 66.9112 60.2431 66.9236C60.2687 66.936 60.2916 66.9534 60.3105 66.9746C60.3294 66.9959 60.344 67.0207 60.3533 67.0475C61.3322 69.8734 63.1729 73.3426 64.1706 74.9921C64.1908 75.0249 64.2019 75.0624 64.2027 75.1009C64.2035 75.1394 64.1939 75.1774 64.175 75.2109C64.1561 75.2444 64.1286 75.2723 64.0952 75.2916C64.0619 75.3109 64.024 75.3209 63.9855 75.3207Z" fill="#000032"/>
<path d="M85.4709 70.0585C86.634 67.5867 91.2196 62.3224 93.3941 61.3801C97.0509 59.7975 94.5533 59.1601 94.5533 59.1601C94.5533 59.1601 96.1921 58.6772 95.9971 57.7762C95.7686 56.7149 92.6437 57.9729 91.6293 58.2876C91.3545 58.3781 91.1831 58.4313 91.1831 58.4313C91.1831 58.4313 91.3555 58.3713 91.6293 58.2876C92.7461 57.9158 95.6672 56.8201 95.7362 56.0529C95.8228 55.0958 94.5061 55.2139 94.5061 55.2139C94.5061 55.2139 95.2939 54.786 94.7148 54.0699C94.1978 53.4257 87.4928 54.0267 82.8295 58.1893C82.1677 58.7795 78.9028 62.1729 78.3828 62.6824L85.4709 70.0585Z" fill="white"/>
<path d="M85.471 70.2748C85.439 70.2753 85.4073 70.2682 85.3784 70.2542C85.3273 70.2288 85.2883 70.1843 85.2698 70.1303C85.2514 70.0763 85.255 70.0173 85.28 69.966C86.4904 67.3948 91.0907 62.1443 93.3135 61.1814C95.0764 60.4181 95.1847 59.9627 95.1729 59.8417C95.1552 59.6115 94.715 59.4247 94.5042 59.3706C94.4585 59.3585 94.4179 59.3318 94.3887 59.2946C94.3595 59.2574 94.3432 59.2118 94.3423 59.1645C94.3414 59.1173 94.356 59.071 94.3838 59.0327C94.4116 58.9945 94.4511 58.9663 94.4963 58.9525C94.5111 58.9525 95.9382 58.504 95.7904 57.8214C95.7839 57.7869 95.7694 57.7544 95.7482 57.7265C95.7271 57.6985 95.6997 57.6758 95.6683 57.6601C95.104 57.3404 93.2662 57.966 92.2794 58.3014C92.0499 58.3801 91.85 58.4479 91.6973 58.4981C91.4255 58.5886 91.2522 58.6427 91.2522 58.6427C91.1986 58.6567 91.1417 58.6498 91.0931 58.6233C91.0444 58.5969 91.0077 58.5529 90.9904 58.5004C90.9731 58.4479 90.9764 58.3907 90.9998 58.3406C91.0232 58.2904 91.0649 58.2511 91.1163 58.2306C91.1163 58.2306 91.2916 58.1696 91.5703 58.084C93.7478 57.3601 95.4861 56.4601 95.5245 56.0371C95.5364 55.9683 95.5322 55.8977 95.5122 55.8308C95.4922 55.7639 95.457 55.7026 95.4093 55.6515C95.1887 55.4292 94.7002 55.4184 94.5298 55.4332C94.48 55.4377 94.4302 55.425 94.3888 55.397C94.3474 55.3691 94.3169 55.3277 94.3025 55.2799C94.2881 55.2321 94.2907 55.1808 94.3099 55.1347C94.3291 55.0886 94.3636 55.0505 94.4077 55.0269C94.4077 55.0269 94.6628 54.8814 94.7032 54.6542C94.7297 54.5204 94.6766 54.3709 94.5475 54.2096C94.065 53.7129 87.555 54.2706 82.9754 58.3545C82.544 58.7391 80.9672 60.3561 79.8149 61.5374C79.2004 62.1679 78.7148 62.6656 78.5346 62.8407C78.5145 62.8615 78.4904 62.8781 78.4638 62.8894C78.4372 62.9008 78.4085 62.9066 78.3796 62.9068C78.3507 62.9069 78.322 62.9012 78.2953 62.89C78.2686 62.8789 78.2444 62.8625 78.2241 62.8419C78.2038 62.8213 78.1879 62.7968 78.1773 62.7699C78.1666 62.743 78.1615 62.7143 78.1622 62.6854C78.1628 62.6565 78.1693 62.628 78.1812 62.6016C78.193 62.5753 78.2101 62.5515 78.2313 62.5319C78.4066 62.3597 78.9148 61.8384 79.5037 61.2355C80.6609 60.0463 82.2436 58.4263 82.6858 58.0328C86.7641 54.3935 92.1986 53.5004 94.0482 53.6558C94.6322 53.704 94.8056 53.8407 94.8844 53.9401C95.0991 54.2066 95.1798 54.4771 95.1276 54.7417C95.1067 54.8423 95.0677 54.9383 95.0124 55.025C95.2727 55.0574 95.5166 55.1694 95.7107 55.3456C95.8034 55.4415 95.8732 55.557 95.915 55.6835C95.9568 55.81 95.9694 55.9444 95.952 56.0765C95.9195 56.4345 95.4595 56.8151 94.842 57.1702C95.2734 57.123 95.6299 57.1486 95.8771 57.2873C95.9616 57.3336 96.035 57.3975 96.0925 57.4748C96.1499 57.552 96.19 57.6407 96.21 57.7348C96.3636 58.4509 95.6526 58.926 95.1266 59.1729C95.3551 59.3086 95.5748 59.5151 95.5994 59.8112C95.6437 60.3758 94.9701 60.9384 93.479 61.5817C91.3842 62.4876 86.8311 67.6801 85.665 70.1528C85.6474 70.1893 85.6199 70.2201 85.5856 70.2417C85.5513 70.2633 85.5116 70.2748 85.471 70.2748Z" fill="#000032"/>
<path d="M91.7259 60.3936C91.6776 60.394 91.6307 60.3782 91.5924 60.3488C91.5542 60.3194 91.5268 60.2782 91.5147 60.2315C91.5026 60.1849 91.5065 60.1355 91.5256 60.0913C91.5448 60.0471 91.5782 60.0105 91.6205 59.9874C91.6953 59.9451 93.473 58.9812 94.3781 59.0038C94.4355 59.0059 94.4898 59.0305 94.529 59.0723C94.5683 59.1141 94.5895 59.1698 94.5879 59.2271C94.5877 59.2557 94.5817 59.2839 94.5702 59.3101C94.5588 59.3363 94.5422 59.36 94.5214 59.3796C94.5007 59.3993 94.4761 59.4145 94.4493 59.4245C94.4225 59.4345 94.3939 59.4389 94.3653 59.4376H94.3367C93.672 59.4376 92.3069 60.1094 91.8312 60.371C91.7986 60.3874 91.7624 60.3952 91.7259 60.3936Z" fill="#000032"/>
<path d="M90.0379 56.8939C89.9893 56.8935 89.9423 56.8768 89.9043 56.8466C89.8664 56.8164 89.8396 56.7744 89.8283 56.7272C89.8169 56.6801 89.8217 56.6305 89.8419 56.5864C89.862 56.5423 89.8963 56.5062 89.9394 56.4838C91.0139 55.9379 92.5601 55.4352 94.1822 55.1067C94.2103 55.1003 94.2395 55.0996 94.2679 55.1046C94.2963 55.1096 94.3234 55.1202 94.3477 55.1359C94.3719 55.1515 94.3928 55.1718 94.4091 55.1956C94.4254 55.2194 94.4367 55.2462 94.4425 55.2744C94.4483 55.3027 94.4484 55.3318 94.4427 55.36C94.4371 55.3883 94.4258 55.4151 94.4096 55.439C94.3935 55.4629 94.3727 55.4833 94.3485 55.499C94.3243 55.5147 94.2972 55.5255 94.2689 55.5306C92.6832 55.8552 91.1774 56.3441 90.1324 56.8733C90.1028 56.8871 90.0705 56.8941 90.0379 56.8939Z" fill="#000032"/>
<path d="M60.9647 38.1091C60.9647 38.1091 65.5079 44.8959 62.8005 48.1625C60.0931 51.429 53.8047 48.0828 53.8047 48.0828C53.8047 48.0828 57.0311 36.5441 60.9647 38.1091Z" fill="white"/>
<path d="M59.3188 49.8179C56.6518 49.8179 53.8735 48.3661 53.7051 48.2736C53.6614 48.2504 53.627 48.213 53.6075 48.1675C53.588 48.1221 53.5845 48.0714 53.5977 48.0238C53.6962 47.6795 55.9939 39.5756 59.1583 38.0117C59.7945 37.6979 60.4307 37.6615 61.0473 37.9074C61.0873 37.9241 61.1215 37.9521 61.1458 37.9881C61.3349 38.2713 65.747 44.952 62.9687 48.3002C62.0213 49.4372 60.6838 49.8179 59.3188 49.8179ZM54.0606 47.9697C55.0366 48.4477 60.2988 50.834 62.629 48.0238C65.0744 45.073 61.2403 38.9441 60.8168 38.2861C60.3332 38.112 59.8507 38.1494 59.3395 38.4002C56.5947 39.7595 54.4132 46.7805 54.0606 47.9697Z" fill="#000032"/>
<path d="M39.5805 74.3736C41.244 75.4752 43.2245 76.0654 45.213 76.1441C47.5491 76.2424 49.8862 75.6523 51.9652 74.5998C53.6296 73.7608 55.1641 72.5775 56.209 71.0185C56.7159 70.2745 57.0716 69.4384 57.2559 68.5575C57.4726 67.4637 57.3672 66.3444 57.123 65.2644C56.8698 64.1382 56.4552 63.0591 56.1548 61.9467C55.886 60.9532 55.6988 59.8732 55.9579 58.8582C56.4503 56.9451 58.4555 56.0146 59.3153 54.3119C60.2154 52.5306 59.7752 50.4257 59.1232 48.6424C58.7608 47.649 58.2368 46.6998 58.0015 45.6641C57.7858 44.7188 57.9532 43.7893 58.5924 43.0496C59.1144 42.4477 59.8126 42.0247 60.4813 41.6057C61.1501 41.1867 61.8533 40.7519 62.4196 40.1765C63.7866 38.7887 63.9175 36.6355 63.3197 34.865C63.0154 33.9611 62.4777 33.1329 61.5874 32.7228C60.7926 32.3578 59.8855 32.3755 59.0425 32.5329C58.093 32.71 57.1978 33.07 56.3055 33.428C55.4874 33.7559 54.671 34.09 53.8562 34.4303C53.6592 34.3998 53.4553 34.3713 53.2524 34.3506C52.1691 34.2385 51.069 34.2778 50.0231 34.5916C49.0107 34.9086 48.0929 35.4717 47.3521 36.2303C45.8748 37.7057 44.8673 39.6847 44.2005 41.6401C43.857 42.6436 43.6064 43.6765 43.452 44.7257C43.2984 45.7693 43.2659 46.8208 43.2334 47.8732C43.2009 48.9257 43.1625 50.0087 42.9379 51.0532C42.7314 52.0548 42.3127 53.0005 41.7098 53.827C41.1031 54.6572 40.3536 55.3713 39.6258 56.0893C38.8981 56.7874 38.2278 57.543 37.6216 58.3487C36.4266 59.9665 35.6226 61.8386 35.2727 63.8185C34.5961 67.8149 36.1443 72.0985 39.5805 74.3736Z" fill="#000032"/>
<path d="M174.698 137.279C178.788 141.705 182.399 146.132 182.399 146.132C182.399 146.132 192.518 124.637 194.466 122.438C198.762 117.584 201.058 117.723 220.892 118.322C240.727 118.921 251.801 117.397 257.135 131.683C262.469 145.97 270.037 161.859 259.825 168.372C259.825 168.372 256.053 170.545 251.993 170.43H206.631L203.208 155.803C203.208 155.803 195.712 166.565 185.487 166.993C176.821 167.356 168.098 154.546 163.586 146.176C170.2 143.849 173.281 140.042 174.698 137.279Z" fill="#FF4E00"/>
<path d="M143.995 130.661C143.995 130.661 143.08 129.689 143.369 128.799C143.659 127.908 144.523 127.779 145.914 128.434C145.914 128.434 145.126 127.203 146.547 126.884C147.968 126.566 149.866 128.487 152.926 129.12C155.986 129.754 157.063 129.958 157.063 129.958C157.063 129.958 156.424 128.692 154.647 127.598C152.87 126.503 153.11 124.977 153.947 124.412C154.661 123.929 155.952 124.461 157.063 125.322C158.523 126.452 162.169 127.381 165.119 128.711C167.362 129.723 171.207 133.501 174.702 137.283C173.284 140.046 170.204 143.853 163.589 146.184C162.781 144.682 162.112 143.323 161.593 142.209C161.593 142.209 160.193 140.98 156.708 140.495C153.224 140.01 148.638 139.657 145.98 137.515C143.322 135.374 143.057 133.719 143.877 132.721C143.874 132.717 142.918 131.672 143.995 130.661Z" fill="white"/>
<path d="M163.587 146.396C163.547 146.397 163.507 146.387 163.472 146.367C163.438 146.347 163.409 146.317 163.39 146.282C162.653 144.915 161.969 143.553 161.409 142.341C161.181 142.163 159.752 141.134 156.67 140.705C156.259 140.648 155.832 140.593 155.395 140.536C152.035 140.1 148.227 139.606 145.836 137.683C144.234 136.393 143.365 135.185 143.253 134.094C143.198 133.612 143.319 133.126 143.594 132.726C143.271 132.277 142.997 131.438 143.693 130.654C143.43 130.321 142.899 129.518 143.153 128.736C143.282 128.342 143.515 128.064 143.842 127.92C144.256 127.741 144.814 127.78 145.504 128.035C145.443 127.808 145.455 127.567 145.538 127.347C145.676 127.012 145.995 126.786 146.486 126.676C147.295 126.494 148.185 126.941 149.31 127.507C150.34 128.024 151.506 128.611 152.954 128.912C154.861 129.305 156.002 129.535 156.588 129.651C156.024 128.902 155.322 128.268 154.519 127.782C153.288 127.021 153.088 126.142 153.08 125.685C153.07 125.401 153.132 125.12 153.26 124.866C153.388 124.612 153.578 124.394 153.812 124.233C154.671 123.652 156.117 124.331 157.182 125.151C158.037 125.812 159.73 126.43 161.524 127.078C162.75 127.524 164.018 127.984 165.194 128.515C167.112 129.38 170.36 132.28 174.846 137.137C174.885 137.179 174.906 137.235 174.904 137.292C174.902 137.35 174.877 137.404 174.834 137.443C174.792 137.483 174.736 137.503 174.678 137.501C174.62 137.499 174.566 137.474 174.527 137.432C170.141 132.686 166.852 129.739 165.014 128.911C163.853 128.387 162.592 127.927 161.37 127.486C159.545 126.823 157.825 126.198 156.912 125.495C155.724 124.575 154.6 124.216 154.051 124.593C153.877 124.713 153.736 124.876 153.642 125.065C153.547 125.254 153.501 125.463 153.508 125.675C153.521 126.31 153.96 126.928 154.743 127.413C156.551 128.531 157.211 129.81 157.239 129.864C157.257 129.9 157.265 129.94 157.261 129.981C157.257 130.021 157.242 130.059 157.218 130.092C157.194 130.124 157.161 130.149 157.123 130.163C157.085 130.178 157.044 130.181 157.004 130.174C156.993 130.174 155.892 129.962 152.868 129.336C151.361 129.024 150.11 128.397 149.114 127.894C148.067 127.366 147.243 126.951 146.58 127.099C146.236 127.176 146.02 127.314 145.939 127.51C145.819 127.799 146.002 128.198 146.083 128.32C146.108 128.36 146.119 128.407 146.116 128.454C146.112 128.5 146.093 128.544 146.062 128.58C146.031 128.615 145.989 128.639 145.944 128.649C145.898 128.658 145.85 128.653 145.807 128.633C145.019 128.26 144.397 128.151 144.014 128.317C143.799 128.415 143.65 128.59 143.561 128.867C143.316 129.625 144.13 130.506 144.139 130.515C144.178 130.557 144.198 130.613 144.197 130.67C144.195 130.727 144.17 130.781 144.129 130.821C143.219 131.677 143.987 132.538 144.02 132.575C144.055 132.613 144.075 132.663 144.077 132.715C144.078 132.767 144.061 132.818 144.028 132.858C143.891 133.022 143.789 133.212 143.728 133.417C143.668 133.622 143.65 133.837 143.676 134.049C143.774 135.007 144.613 136.147 146.1 137.346C148.395 139.195 152.139 139.681 155.442 140.11C155.88 140.166 156.309 140.222 156.723 140.279C160.231 140.771 161.661 141.993 161.72 142.045C161.743 142.065 161.761 142.09 161.774 142.118C162.334 143.332 163.023 144.702 163.764 146.079C163.778 146.105 163.787 146.132 163.79 146.161C163.793 146.189 163.79 146.218 163.782 146.245C163.774 146.273 163.76 146.298 163.742 146.32C163.724 146.343 163.702 146.361 163.677 146.375C163.649 146.388 163.618 146.396 163.587 146.396Z" fill="#000032"/>
<path d="M153.443 135.849C151.416 135.847 149.425 135.304 147.678 134.275C147.467 134.15 147.26 134.018 147.054 133.882C146.707 133.66 146.349 133.432 145.98 133.246C145.321 132.915 144.716 132.774 144.177 132.825C144.119 132.83 144.062 132.812 144.018 132.776C143.974 132.739 143.946 132.686 143.941 132.629C143.938 132.6 143.941 132.571 143.949 132.544C143.957 132.517 143.971 132.491 143.989 132.469C144.008 132.447 144.03 132.429 144.056 132.416C144.081 132.403 144.109 132.395 144.137 132.393C144.758 132.332 145.444 132.491 146.177 132.858C146.559 133.058 146.93 133.277 147.289 133.515C147.492 133.644 147.695 133.774 147.901 133.896C149.861 135.05 152.134 135.563 154.401 135.364C154.429 135.361 154.458 135.364 154.485 135.373C154.512 135.381 154.538 135.395 154.559 135.413C154.581 135.432 154.599 135.454 154.613 135.479C154.626 135.504 154.634 135.532 154.637 135.56C154.639 135.589 154.636 135.617 154.628 135.644C154.619 135.672 154.606 135.697 154.587 135.719C154.569 135.741 154.547 135.759 154.521 135.772C154.496 135.785 154.469 135.793 154.44 135.796C154.109 135.836 153.774 135.849 153.443 135.849Z" fill="#000032"/>
<path d="M154.696 133.756H154.677C152.648 133.584 150.669 133.037 148.84 132.142C148.603 132.027 148.368 131.905 148.134 131.783C147.631 131.51 147.113 131.266 146.583 131.054C145.705 130.723 144.914 130.639 144.233 130.799C144.205 130.807 144.175 130.809 144.146 130.806C144.117 130.802 144.089 130.792 144.064 130.777C144.038 130.763 144.016 130.743 143.999 130.719C143.982 130.696 143.969 130.669 143.963 130.64C143.956 130.612 143.955 130.582 143.96 130.553C143.965 130.525 143.976 130.497 143.992 130.473C144.008 130.448 144.029 130.427 144.054 130.411C144.078 130.395 144.105 130.384 144.134 130.378C144.901 130.195 145.778 130.287 146.737 130.649C147.284 130.867 147.818 131.118 148.336 131.398C148.567 131.518 148.798 131.638 149.032 131.753C150.813 132.625 152.74 133.158 154.716 133.327C154.771 133.332 154.822 133.358 154.858 133.4C154.895 133.442 154.914 133.496 154.912 133.551C154.909 133.607 154.886 133.659 154.846 133.698C154.806 133.736 154.753 133.758 154.698 133.759L154.696 133.756Z" fill="#000032"/>
<path d="M155.042 132.312H155.007C151.834 131.79 148.802 130.62 146.102 128.875C146.079 128.86 146.058 128.84 146.042 128.816C146.026 128.793 146.015 128.766 146.009 128.739C146.003 128.711 146.002 128.682 146.008 128.654C146.013 128.626 146.023 128.6 146.039 128.576C146.054 128.552 146.075 128.531 146.098 128.515C146.121 128.499 146.148 128.488 146.176 128.482C146.204 128.476 146.232 128.476 146.26 128.481C146.288 128.486 146.315 128.497 146.339 128.512C148.988 130.225 151.963 131.373 155.077 131.884C155.132 131.891 155.182 131.92 155.217 131.963C155.251 132.006 155.268 132.061 155.264 132.116C155.26 132.171 155.234 132.223 155.193 132.26C155.152 132.297 155.098 132.316 155.042 132.315V132.312Z" fill="#000032"/>
<path d="M247.932 169.816C247.904 169.816 247.876 169.811 247.85 169.8C241.263 167.115 235.58 162.349 231.837 156.378C231.82 156.354 231.808 156.326 231.802 156.297C231.796 156.268 231.795 156.238 231.801 156.209C231.807 156.18 231.818 156.153 231.835 156.128C231.852 156.104 231.874 156.083 231.899 156.067C231.924 156.052 231.952 156.041 231.982 156.037C232.011 156.032 232.041 156.034 232.07 156.041C232.099 156.049 232.125 156.062 232.149 156.08C232.172 156.099 232.192 156.122 232.206 156.148C235.896 162.043 241.51 166.75 248.013 169.399C248.06 169.418 248.098 169.452 248.122 169.496C248.146 169.541 248.154 169.592 248.144 169.641C248.135 169.69 248.108 169.735 248.069 169.767C248.03 169.799 247.981 169.816 247.931 169.816H247.932Z" fill="#000032"/>
<path d="M254.441 154.294C254.407 154.294 254.373 154.286 254.343 154.27C254.312 154.255 254.286 154.233 254.266 154.205C251.663 150.64 248.853 147.23 245.849 143.994C245.83 143.973 245.815 143.949 245.805 143.922C245.795 143.896 245.79 143.867 245.791 143.839C245.792 143.81 245.799 143.782 245.811 143.756C245.823 143.731 245.839 143.707 245.86 143.688C245.881 143.668 245.906 143.653 245.932 143.643C245.959 143.634 245.988 143.629 246.016 143.63C246.045 143.631 246.073 143.638 246.099 143.65C246.124 143.661 246.148 143.678 246.167 143.699C249.182 146.947 252.003 150.37 254.616 153.948C254.633 153.971 254.645 153.997 254.652 154.025C254.659 154.053 254.66 154.081 254.656 154.11C254.651 154.138 254.641 154.165 254.626 154.189C254.612 154.213 254.592 154.235 254.569 154.251C254.532 154.278 254.487 154.293 254.441 154.294Z" fill="#000032"/>
<path d="M187.829 153.024C187.796 153.024 187.764 153.017 187.734 153.002C187.705 152.988 187.679 152.968 187.659 152.942L182.512 146.519C182.495 146.497 182.481 146.471 182.473 146.444C182.465 146.417 182.463 146.388 182.466 146.36C182.469 146.332 182.478 146.304 182.492 146.279C182.506 146.254 182.524 146.232 182.546 146.215C182.569 146.197 182.594 146.184 182.621 146.176C182.649 146.168 182.677 146.165 182.706 146.169C182.734 146.172 182.761 146.18 182.786 146.194C182.811 146.208 182.833 146.226 182.851 146.249L187.998 152.672C188.024 152.703 188.04 152.742 188.045 152.782C188.049 152.823 188.042 152.864 188.025 152.901C188.007 152.938 187.979 152.969 187.944 152.991C187.91 153.012 187.87 153.024 187.829 153.024Z" fill="#000032"/>
<path d="M203.107 155.664C203.06 155.663 203.014 155.648 202.977 155.62C202.939 155.592 202.912 155.552 202.899 155.507L197.635 137.42C197.625 137.392 197.621 137.363 197.624 137.334C197.626 137.304 197.634 137.276 197.647 137.25C197.661 137.224 197.68 137.201 197.702 137.183C197.725 137.164 197.751 137.15 197.779 137.142C197.807 137.134 197.837 137.132 197.866 137.135C197.895 137.139 197.923 137.148 197.948 137.163C197.973 137.177 197.996 137.197 198.013 137.22C198.031 137.244 198.043 137.27 198.05 137.299L203.315 155.386C203.323 155.414 203.326 155.442 203.323 155.471C203.32 155.499 203.311 155.526 203.297 155.551C203.284 155.576 203.265 155.598 203.243 155.616C203.221 155.634 203.195 155.647 203.168 155.655C203.148 155.661 203.127 155.664 203.107 155.664Z" fill="#000032"/>
<path d="M245.471 143.366C245.471 143.366 241.039 154.448 231.567 155.419L229.277 152.558C228.657 151.785 227.88 151.152 226.998 150.7C226.115 150.249 225.147 149.989 224.156 149.938C222.609 149.856 220.795 149.643 219.539 149.116C216.925 148.022 217.499 146.604 223.318 147.191C223.318 147.191 217.979 145.224 216.893 144.752C215.806 144.28 214.685 141.281 219.525 142.527C219.525 142.527 216.445 141.23 215.949 140.379C215.454 139.527 215.976 138.284 220.13 139.337C220.13 139.337 216.585 138.527 216.45 137.415C216.315 136.302 217.92 135.349 224.939 137.357C230.168 138.852 230.891 139.409 230.632 137.76C230.348 135.955 224.905 134.802 227.445 133.358C229.08 132.428 240.677 135.422 245.471 143.366Z" fill="white"/>
<path d="M224.168 144.118C224.147 144.118 224.126 144.115 224.105 144.108L219.823 142.798C219.796 142.79 219.771 142.776 219.749 142.758C219.727 142.74 219.709 142.718 219.695 142.693C219.682 142.667 219.674 142.64 219.671 142.612C219.668 142.583 219.671 142.555 219.679 142.528C219.688 142.5 219.701 142.475 219.72 142.453C219.738 142.431 219.76 142.413 219.785 142.4C219.81 142.386 219.838 142.378 219.866 142.375C219.894 142.373 219.923 142.376 219.95 142.384L224.232 143.694C224.283 143.709 224.326 143.741 224.354 143.785C224.382 143.83 224.393 143.882 224.385 143.934C224.378 143.986 224.351 144.033 224.311 144.067C224.272 144.1 224.221 144.119 224.168 144.118Z" fill="#000032"/>
<path d="M225.809 141.187C225.792 141.187 225.774 141.186 225.757 141.181C223.966 140.74 222.172 140.214 220.428 139.615C220.401 139.606 220.375 139.592 220.353 139.574C220.331 139.555 220.313 139.532 220.3 139.506C220.287 139.48 220.28 139.452 220.278 139.424C220.276 139.395 220.28 139.366 220.289 139.339C220.299 139.311 220.313 139.286 220.332 139.265C220.352 139.243 220.375 139.226 220.401 139.214C220.427 139.201 220.455 139.194 220.484 139.193C220.513 139.192 220.542 139.196 220.569 139.206C222.301 139.796 224.082 140.323 225.861 140.76C225.912 140.772 225.958 140.803 225.988 140.847C226.019 140.89 226.032 140.944 226.026 140.996C226.019 141.049 225.994 141.098 225.954 141.133C225.914 141.168 225.863 141.187 225.809 141.187Z" fill="#000032"/>
<path d="M213.283 91.0063C212.988 91.9466 213.394 93.001 213.359 93.9571C213.325 94.9131 212.846 95.9518 213.058 96.8941C213.267 97.8207 214.131 98.5141 214.558 99.3817C214.971 100.222 215 101.362 215.599 102.114C216.177 102.839 217.243 103.084 217.976 103.697C218.681 104.287 219.131 105.321 219.964 105.78C220.761 106.22 221.844 106.039 222.745 106.336C223.646 106.633 224.419 107.427 225.32 107.546C226.258 107.671 227.214 107.099 228.122 107.042C229.067 106.982 230.072 107.421 230.955 107.177C231.871 106.924 232.544 106.015 233.36 105.579C234.201 105.131 235.298 105.088 235.996 104.456C236.695 103.825 236.903 102.697 237.426 101.892C237.949 101.086 238.873 100.484 239.169 99.544C239.464 98.6036 239.059 97.5492 239.094 96.5931C239.128 95.6371 239.607 94.5984 239.389 93.6561C239.18 92.7295 238.317 92.0371 237.889 91.1695C237.476 90.3286 237.448 89.1885 236.848 88.4361C236.271 87.7112 235.203 87.4663 234.471 86.8535C233.767 86.2633 233.315 85.2295 232.483 84.7702C231.686 84.3305 230.604 84.5115 229.702 84.2145C228.8 83.9174 228.028 83.1236 227.127 83.0046C226.189 82.8797 225.234 83.4512 224.326 83.5092C223.381 83.5692 222.375 83.1295 221.492 83.3735C220.576 83.6263 219.904 84.5351 219.088 84.9708C218.247 85.4204 217.15 85.4626 216.452 86.0941C215.753 86.7256 215.544 87.8528 215.021 88.6584C214.498 89.464 213.58 90.0659 213.283 91.0063Z" fill="#000032"/>
<path d="M217.766 112.242L218.6 116.978C218.732 117.728 218.415 118.485 217.766 118.971C218.966 122.336 224.162 122.189 229.407 118.532L228.858 118.106C228.012 117.467 227.438 116.534 227.25 115.491L226.172 109.119C226.172 109.119 224.329 106.351 217.766 112.242Z" fill="white"/>
<path d="M217.765 119.188C217.719 119.189 217.673 119.175 217.635 119.148C217.597 119.121 217.568 119.083 217.554 119.039C217.539 118.995 217.539 118.947 217.554 118.903C217.569 118.859 217.597 118.821 217.635 118.794C217.914 118.596 218.131 118.324 218.264 118.009C218.396 117.695 218.438 117.349 218.386 117.012L217.551 112.276C217.545 112.24 217.549 112.203 217.561 112.169C217.573 112.134 217.593 112.103 217.62 112.079C221.437 108.653 223.708 108.118 224.948 108.275C225.945 108.401 226.336 108.974 226.353 108.997C226.37 109.023 226.381 109.052 226.387 109.082L227.464 115.454C227.643 116.442 228.188 117.327 228.991 117.933L229.539 118.358C229.585 118.394 229.614 118.445 229.621 118.502C229.629 118.559 229.613 118.617 229.578 118.662C229.542 118.708 229.491 118.737 229.433 118.744C229.376 118.752 229.319 118.736 229.273 118.701L228.725 118.275C227.835 117.602 227.231 116.618 227.036 115.521L225.967 109.202C225.88 109.104 225.558 108.778 224.868 108.697C223.731 108.565 221.618 109.091 218 112.316L218.813 116.939C218.88 117.355 218.829 117.782 218.667 118.171C218.505 118.56 218.238 118.896 217.895 119.142C217.858 119.171 217.812 119.187 217.765 119.188Z" fill="#000032"/>
<path d="M214.885 105.858C215.116 104.374 215.787 101.622 216.879 99.366C218.532 101.628 222.23 100.87 222.073 100.669C224.067 103.22 227.483 102.382 227.483 102.382C227.483 102.382 226.541 103.889 225.908 104.887C226.518 104.909 227.114 104.545 227.713 104.664C228.512 104.822 228.91 105.776 228.834 106.587C228.788 107.081 228.62 107.556 228.344 107.97C228.069 108.383 227.695 108.721 227.256 108.954C226.817 109.187 226.327 109.307 225.83 109.303C225.333 109.3 224.844 109.173 224.409 108.934C223.405 110.526 221.806 111.814 219.947 112.11C218.089 112.406 216.008 111.543 215.181 109.854C214.582 108.637 214.675 107.2 214.885 105.858Z" fill="white"/>
<path d="M219.198 112.388C217.41 112.388 215.718 111.439 214.987 109.953C214.345 108.645 214.467 107.133 214.671 105.821C214.875 104.51 215.53 101.655 216.684 99.2716C216.701 99.2381 216.726 99.2094 216.757 99.1882C216.788 99.167 216.823 99.1541 216.861 99.1506C216.898 99.1462 216.936 99.152 216.971 99.1674C217.006 99.1828 217.036 99.2072 217.058 99.2381C218.457 101.15 221.427 100.76 221.888 100.564C221.902 100.539 221.922 100.517 221.945 100.499C221.967 100.482 221.993 100.469 222.02 100.461C222.048 100.453 222.076 100.451 222.104 100.455C222.133 100.458 222.16 100.467 222.185 100.481C222.21 100.495 222.231 100.514 222.249 100.536C224.13 102.943 227.403 102.179 227.435 102.171C227.477 102.161 227.521 102.164 227.561 102.179C227.601 102.194 227.636 102.22 227.662 102.255C227.687 102.29 227.701 102.331 227.703 102.374C227.705 102.417 227.694 102.459 227.672 102.496C227.672 102.496 226.938 103.669 226.33 104.631C226.44 104.61 226.554 104.582 226.669 104.553C227.019 104.466 227.38 104.375 227.759 104.454C228.679 104.636 229.138 105.694 229.054 106.61C229.006 107.123 228.836 107.617 228.556 108.05C228.277 108.483 227.898 108.843 227.45 109.098C227.002 109.354 226.5 109.499 225.984 109.52C225.469 109.541 224.956 109.437 224.489 109.219C223.36 110.92 221.732 112.05 219.985 112.326C219.724 112.368 219.461 112.388 219.198 112.388ZM216.933 99.7732C215.884 102.043 215.293 104.656 215.096 105.891C214.899 107.133 214.784 108.563 215.373 109.762C216.128 111.298 218.038 112.197 219.91 111.899C221.584 111.633 223.16 110.51 224.223 108.821C224.252 108.775 224.298 108.742 224.352 108.728C224.405 108.714 224.462 108.721 224.51 108.747C224.914 108.968 225.367 109.086 225.828 109.089C226.289 109.092 226.744 108.981 227.151 108.765C227.558 108.549 227.905 108.235 228.161 107.852C228.416 107.469 228.572 107.028 228.615 106.57C228.682 105.86 228.338 105.012 227.668 104.879C227.384 104.823 227.084 104.897 226.766 104.977C226.484 105.061 226.192 105.105 225.898 105.107C225.86 105.106 225.823 105.094 225.79 105.074C225.758 105.054 225.732 105.025 225.714 104.992C225.696 104.958 225.687 104.92 225.689 104.882C225.69 104.844 225.701 104.807 225.721 104.775C226.149 104.101 226.718 103.194 227.042 102.677C226.022 102.801 223.635 102.849 222.034 100.971C221.796 101.055 221.547 101.109 221.296 101.13C219.886 101.297 218.05 101.016 216.929 99.7732H216.933Z" fill="#000032"/>
<path d="M225.121 107.894C225.081 107.894 225.042 107.883 225.008 107.862C224.974 107.842 224.947 107.812 224.928 107.777C224.91 107.741 224.902 107.701 224.905 107.662C224.908 107.622 224.922 107.584 224.945 107.552C225.221 107.18 225.609 106.906 226.051 106.768C226.493 106.63 226.968 106.634 227.407 106.781C227.434 106.791 227.459 106.806 227.48 106.825C227.501 106.844 227.518 106.867 227.53 106.893C227.542 106.919 227.549 106.946 227.551 106.975C227.552 107.003 227.548 107.032 227.538 107.059C227.529 107.085 227.514 107.11 227.494 107.131C227.475 107.152 227.452 107.169 227.426 107.181C227.4 107.193 227.372 107.2 227.344 107.202C227.315 107.203 227.287 107.198 227.26 107.189C226.91 107.072 226.532 107.068 226.18 107.179C225.829 107.289 225.52 107.508 225.3 107.803C225.28 107.832 225.253 107.855 225.222 107.871C225.191 107.887 225.156 107.894 225.121 107.894Z" fill="#000032"/>
<path d="M82.0538 138.033C83.6573 138.033 84.9572 136.732 84.9572 135.127C84.9572 133.522 83.6573 132.221 82.0538 132.221C80.4503 132.221 79.1504 133.522 79.1504 135.127C79.1504 136.732 80.4503 138.033 82.0538 138.033Z" fill="#FFECE3"/>
<path d="M90.5264 138.033C92.1299 138.033 93.4298 136.732 93.4298 135.127C93.4298 133.522 92.1299 132.221 90.5264 132.221C88.9229 132.221 87.623 133.522 87.623 135.127C87.623 136.732 88.9229 138.033 90.5264 138.033Z" fill="#FFECE3"/>
<path d="M98.9991 138.033C100.603 138.033 101.902 136.732 101.902 135.127C101.902 133.522 100.603 132.221 98.9991 132.221C97.3956 132.221 96.0957 133.522 96.0957 135.127C96.0957 136.732 97.3956 138.033 98.9991 138.033Z" fill="#FFECE3"/>
<path d="M122.13 135.344H104.935C104.878 135.344 104.823 135.321 104.782 135.281C104.742 135.24 104.719 135.185 104.719 135.128C104.719 135.071 104.742 135.015 104.782 134.975C104.823 134.934 104.878 134.911 104.935 134.911H121.914V120.112C121.914 120.055 121.936 120 121.977 119.959C122.018 119.919 122.073 119.896 122.13 119.896C122.188 119.896 122.243 119.919 122.283 119.959C122.324 120 122.347 120.055 122.347 120.112V135.127C122.347 135.155 122.342 135.184 122.331 135.21C122.32 135.237 122.304 135.261 122.284 135.281C122.264 135.301 122.24 135.317 122.213 135.328C122.187 135.339 122.159 135.344 122.13 135.344Z" fill="#000032"/>
<path d="M132.422 140.323H109.547C109.489 140.323 109.434 140.301 109.394 140.26C109.353 140.219 109.33 140.164 109.33 140.107C109.33 140.05 109.353 139.995 109.394 139.954C109.434 139.913 109.489 139.891 109.547 139.891H132.422C132.48 139.891 132.535 139.913 132.575 139.954C132.616 139.995 132.639 140.05 132.639 140.107C132.639 140.164 132.616 140.219 132.575 140.26C132.535 140.301 132.48 140.323 132.422 140.323Z" fill="#000032"/>
<path d="M124.235 145.308H87.6229C87.5655 145.308 87.5103 145.285 87.4697 145.245C87.4291 145.204 87.4062 145.149 87.4062 145.092C87.4062 145.034 87.4291 144.979 87.4697 144.939C87.5103 144.898 87.5655 144.875 87.6229 144.875H124.235C124.293 144.875 124.348 144.898 124.389 144.939C124.429 144.979 124.452 145.034 124.452 145.092C124.452 145.149 124.429 145.204 124.389 145.245C124.348 145.285 124.293 145.308 124.235 145.308Z" fill="#000032"/>
<path d="M103.106 179.888H20.2479C20.1929 179.884 20.1413 179.86 20.1036 179.819C20.0659 179.779 20.0449 179.726 20.0449 179.671C20.0449 179.616 20.0659 179.563 20.1036 179.523C20.1413 179.482 20.1929 179.458 20.2479 179.454H103.106C103.161 179.458 103.212 179.482 103.25 179.523C103.288 179.563 103.309 179.616 103.309 179.671C103.309 179.726 103.288 179.779 103.25 179.819C103.212 179.86 103.161 179.884 103.106 179.888Z" fill="#000032"/>
</g>
<defs>
<clipPath id="clip0_15743_41047">
<rect width="270" height="180" fill="white"/>
</clipPath>
</defs>
</svg>
